<svg width="119" height="120" viewBox="0 0 119 120" fill="none" xmlns="http://www.w3.org/2000/svg">
<g clip-path="url(#clip0_104_304)">
<path d="M45.0805 -3.69288e-05C44.4179 0.0995764 43.7851 0.34539 43.2271 0.719963C43.2271 0.719963 37.4522 4.39381 31.2436 8.36766C25.0351 12.3369 18.1281 16.7123 16.5485 17.5984C16.4511 17.6412 16.3552 17.6874 16.2609 17.7369C10.5272 21.3138 9.33566 27.1569 9.13023 30.4338C9.11653 30.5861 9.13023 30.7107 9.13023 30.8723C9.08001 32.1 9.13023 32.8892 9.13023 32.8892V93.18C9.13023 101.94 19.2328 106.154 28.8196 106.154C32.0151 106.154 35.2107 105.632 37.9498 104.709C39.7758 103.786 41.086 101.94 41.086 100.094V51.6323C41.086 41.0169 43.3686 36.0323 50.2162 31.8784C52.0423 30.9554 71.1884 17.5938 71.1884 17.5938C72.1014 16.6707 73.0418 14.7969 73.0418 13.4123V12.9784C73.0418 11.1323 72.1288 9.71996 70.7592 8.79689C69.3897 7.87381 67.5637 7.87381 66.1941 8.79689C65.7376 9.25843 37.8904 28.2138 31.9558 31.4446C26.0211 35.1369 20.4837 36.0277 19.1141 34.1815C18.6896 33.7523 18.3198 32.4369 18.2605 31.1538V30.863C18.265 29.6077 18.5846 27.2446 21.1136 25.6707C23.6792 24.2261 30.0476 20.1138 36.2379 16.1538C38.8537 14.4784 39.1778 14.2984 41.2275 12.9784C41.4974 14.1059 42.1772 15.0894 43.1319 15.733C44.0865 16.3766 45.2458 16.6331 46.3791 16.4516C47.5123 16.27 48.5364 15.6637 49.2475 14.7532C49.9585 13.8428 50.3044 12.695 50.2162 11.5384V4.61535C50.2213 3.95749 50.0873 3.30614 49.823 2.70494C49.5588 2.10375 49.1705 1.56662 48.6842 1.12955C48.1978 0.692481 47.6247 0.36558 47.0031 0.170761C46.3816 -0.0240576 45.7261 -0.0822915 45.0805 -3.69288e-05ZM81.6014 16.1538C80.8754 16.2759 80.1895 16.5736 79.6019 17.0215C79.6019 17.0215 56.6211 32.6538 52.6403 35.3354C52.5921 35.3835 52.5449 35.4328 52.4988 35.483C49.1936 37.9892 47.2352 40.9707 46.3633 43.6984C45.8747 45.2372 45.6343 46.8455 45.6511 48.4615V49.9061C45.6445 50.0491 45.6445 50.1924 45.6511 50.3354V106.154C45.6511 114.923 55.6396 120 64.7698 120C68.8784 120 72.5853 119.105 75.3244 117.258C80.8025 114.028 107.28 93.1754 107.28 93.1754C108.65 92.2523 109.563 90.9507 109.563 89.5661V29.5661C109.563 27.2584 108.677 25.8738 106.851 24.9507C105.481 24.0277 103.231 24.4615 101.861 25.3846C94.5572 30.923 74.8952 46.56 70.3301 49.3292C63.939 53.0215 57.9176 53.9446 55.635 51.6369C54.722 50.7138 54.7813 49.8461 54.7813 48.4615C54.8087 47.6677 54.8955 46.9846 55.069 46.44C55.3246 45.6369 55.845 44.6492 57.7761 43.1261C57.8674 43.0523 57.8217 43.0569 57.9176 42.983C61.2182 40.7538 71.3116 33.7984 77.8945 29.2754C78.2675 30.2869 78.9793 31.1343 79.9063 31.6701C80.8333 32.2059 81.9167 32.3962 82.9681 32.208C84.0195 32.0198 84.9724 31.4649 85.661 30.6398C86.3497 29.8148 86.7304 28.7718 86.7371 27.6923V20.7692C86.7422 20.1113 86.6082 19.46 86.3439 18.8588C86.0797 18.2576 85.6914 17.7205 85.2051 17.2834C84.7187 16.8463 84.1456 16.5194 83.524 16.3246C82.9025 16.1298 82.247 16.0716 81.6014 16.1538ZM100.432 49.9061V59.1369L77.6069 77.0169V67.7861L100.432 49.9061Z" fill="#2149A2"/>
</g>
<defs>
<clipPath id="clip0_104_304">
<rect width="118.693" height="120" fill="white"/>
</clipPath>
</defs>
</svg>
