<svg width="165" height="165" viewBox="0 0 165 165" fill="none" xmlns="http://www.w3.org/2000/svg">
<path d="M133.544 31.4981C126.853 24.7407 118.892 19.372 110.12 15.7004C101.347 12.0288 91.9361 10.1267 82.4264 10.1032C72.9168 10.0798 63.4962 11.9356 54.7059 15.564C45.9156 19.1924 37.9289 24.5219 31.2045 31.2463C24.4801 37.9706 19.1507 45.9574 15.5223 54.7477C11.8939 63.5379 10.0381 72.9585 10.0615 82.4682C10.0849 91.9779 11.9871 101.389 15.6587 110.162C19.3303 118.934 24.699 126.894 31.4564 133.585C38.1476 140.343 46.108 145.712 54.8803 149.383C63.6526 153.055 73.064 154.957 82.5736 154.98C92.0833 155.004 101.504 153.148 110.294 149.52C119.084 145.891 127.071 140.562 133.796 133.837C140.52 127.113 145.849 119.126 149.478 110.336C153.106 101.546 154.962 92.1251 154.939 82.6154C154.915 73.1057 153.013 63.6944 149.341 54.9221C145.67 46.1497 140.301 38.1893 133.544 31.4981ZM20.625 82.5418C20.6227 77.0656 21.3488 71.6134 22.7842 66.3286C25.1497 71.4204 28.585 75.8193 30.9214 81.0433C33.9411 87.7593 42.0493 85.8966 45.6296 91.7811C48.8072 97.0051 45.4137 103.612 47.792 109.077C49.5194 113.044 53.5928 113.911 56.403 116.812C59.2744 119.738 59.2131 123.747 59.6514 127.562C60.146 132.045 60.9482 136.489 62.0523 140.862C62.0523 140.894 62.0523 140.93 62.0781 140.962C37.9629 132.493 20.625 109.506 20.625 82.5418ZM82.5 144.417C79.0445 144.416 75.5951 144.127 72.1875 143.553C72.223 142.68 72.2391 141.864 72.3261 141.297C73.1092 136.173 75.6745 131.162 79.1356 127.327C82.5548 123.544 87.2406 120.985 90.1281 116.692C92.9576 112.503 93.8051 106.863 92.6385 101.968C90.9208 94.7363 81.095 92.3226 75.7969 88.4006C72.7515 86.1447 70.0413 82.6578 66.0419 82.3742C64.1986 82.2453 62.6549 82.6417 60.8277 82.1712C59.1519 81.7361 57.8371 80.8338 56.0517 81.069C52.7163 81.5073 50.6119 85.0716 47.0283 84.5882C43.6284 84.1338 40.1253 80.1538 39.3519 76.915C38.3593 72.7514 41.6529 71.4011 45.1817 71.0305C46.6544 70.8758 48.3077 70.7082 49.7224 71.2496C51.5851 71.9392 52.4649 73.7633 54.1374 74.685C57.2731 76.4059 57.908 73.6569 57.4278 70.8726C56.7091 66.7024 55.8712 65.0041 59.5902 62.1327C62.1683 60.154 64.3726 58.7231 63.9601 55.1685C63.7152 53.0803 62.5711 52.136 63.6378 50.0574C64.4467 48.4751 66.6671 47.0475 68.1141 46.1032C71.8492 43.6669 84.1146 43.8474 79.1034 37.0282C77.6306 35.0269 74.9139 31.4498 72.3358 30.96C69.1131 30.3509 67.6823 33.9474 65.4361 35.5329C63.1158 37.1732 58.5976 39.0359 56.2741 36.4997C53.1481 33.0869 58.3462 31.9686 59.4967 29.5839C60.0285 28.4721 59.4967 26.9284 58.6008 25.475C59.7631 24.9852 60.9448 24.5308 62.1457 24.1118C62.8984 24.6677 63.7913 25.0025 64.7239 25.0786C66.8798 25.2204 68.9133 24.0538 70.7954 25.5233C72.8836 27.1347 74.3886 29.1714 77.1601 29.6741C79.8413 30.1607 82.6805 28.5977 83.3444 25.852C83.7472 24.1827 83.3444 22.4199 82.9577 20.6958C95.0105 20.7651 106.777 24.3747 116.796 31.076C116.151 30.831 115.381 30.8601 114.43 31.3016C112.474 32.2103 109.702 34.5242 109.474 36.8187C109.213 39.4227 113.054 39.79 114.878 39.79C117.617 39.79 120.392 38.5654 119.509 35.4008C119.126 34.0279 118.603 32.6003 117.762 31.7366C119.784 33.1396 121.721 34.6612 123.563 36.2935C123.534 36.3225 123.505 36.3482 123.476 36.3805C121.62 38.3141 119.464 39.8448 118.194 42.1974C117.298 43.8538 116.29 44.6401 114.475 45.0687C113.476 45.304 112.335 45.391 111.498 46.0613C109.164 47.8982 110.492 52.3133 112.703 53.6378C115.497 55.3103 119.641 54.524 121.749 52.136C123.396 50.2669 124.366 47.0217 127.327 47.0249C128.631 47.0222 129.884 47.5327 130.814 48.4461C132.039 49.7158 131.797 50.9017 132.058 52.4873C132.519 55.3039 135.004 53.7764 136.515 52.3552C137.617 54.3159 138.611 56.3352 139.493 58.4041C137.83 60.7985 136.509 63.4089 132.509 60.6181C130.115 58.9455 128.642 56.5188 125.635 55.7647C123.009 55.1202 120.318 55.7905 117.724 56.2385C114.775 56.7509 111.278 56.9765 109.042 59.2098C106.879 61.3625 105.735 64.2435 103.434 66.4059C98.9839 70.5954 97.1051 75.1684 99.9862 81.0916C102.758 86.786 108.555 89.8766 114.81 89.4705C120.956 89.0612 127.34 85.497 127.163 94.427C127.098 97.5884 127.759 99.7766 128.729 102.712C129.628 105.419 129.567 108.043 129.773 110.837C129.969 114.109 130.481 117.354 131.301 120.527C125.524 127.964 118.125 133.983 109.667 138.123C101.209 142.264 91.9169 144.416 82.5 144.417Z" fill="#E4362E"/>
</svg>
