<svg width="587" height="580" viewBox="0 0 587 580" fill="none" xmlns="http://www.w3.org/2000/svg">
<mask id="mask0_45_2" style="mask-type:luminance" maskUnits="userSpaceOnUse" x="0" y="0" width="587" height="580">
<path d="M532.026 135.795C479.339 65.8093 384.031 3.28557 294.197 32.0044C254.42 44.7265 219.971 69.3522 187.092 95.481C178.396 90.8913 168.237 88.5026 160.588 82.2489C138.887 64.521 146.939 25.4688 125.172 7.80811C109.605 -4.82011 85.1134 0.494208 70.3783 14.1021C55.6565 27.6965 48.3024 47.3032 41.4448 66.1449C33.8893 86.9056 26.3204 107.666 18.7649 128.44C9.41121 154.113 -0.063315 180.51 0.460065 207.833C0.849245 228.674 8.14973 257.018 19.8385 280.892C11.8671 301.075 6.86141 322.252 5.96227 343.966C4.04321 390.278 21.2074 436.403 49.7786 472.892C78.3498 509.381 117.778 536.57 160.601 554.311C233.203 584.412 316.984 587.633 390.982 561.142C464.98 534.65 528.188 478.26 561.027 406.852C576.527 373.127 585.384 336.303 586.23 299.197C587.558 240.591 567.146 182.443 532.026 135.795Z" fill="white"/>
</mask>
<g mask="url(#mask0_45_2)">
<path d="M211.865 581.996C142.135 541.428 90.3204 470.141 73.277 391.285L74.6056 391.003C91.5684 469.483 143.142 540.448 212.55 580.829L211.865 581.996Z" fill="#1E1B1B"/>
<path d="M91.3537 444.924C80.2017 427.384 59.4946 418.447 37.8214 411.039C37.8214 411.039 43.6725 464.531 91.3537 444.924Z" fill="#1E1B1B"/>
<path d="M91.2866 445.595C59.6691 442.522 37.4858 411.737 37.2577 411.428L38.3715 410.636C38.5863 410.945 60.4206 441.234 91.4208 444.24L91.2866 445.595Z" fill="#1E1B1B"/>
<path d="M116.06 489.814C100.224 476.341 77.7995 473.925 54.905 473.254C54.8916 473.254 76.2965 522.64 116.06 489.814Z" fill="#1E1B1B"/>
<path d="M104.827 491.613C78.0947 491.613 54.7439 473.992 54.489 473.791L55.321 472.717C55.6162 472.945 85.4221 495.424 115.926 489.157L116.194 490.485C112.369 491.264 108.572 491.613 104.827 491.613Z" fill="#1E1B1B"/>
<path d="M144.067 525.592C123.978 520.237 102.694 527.712 81.7316 536.945C81.7316 536.945 122.287 572.32 144.067 525.592Z" fill="#1E1B1B"/>
<path d="M99.6204 539.16C89.1931 539.16 81.7584 537.643 81.5974 537.603L81.8792 536.274C82.2415 536.355 118.824 543.83 143.665 525.042L144.483 526.129C130.392 536.784 112.665 539.16 99.6204 539.16Z" fill="#1E1B1B"/>
<path d="M183.2 562.9C163.808 555.398 141.84 560.497 120.005 567.395C119.992 567.395 156.454 606.984 183.2 562.9Z" fill="#1E1B1B"/>
<path d="M148.496 572.159C132.593 572.159 119.992 568.107 119.791 568.039L120.22 566.751C120.582 566.872 156.132 578.279 182.865 562.309L183.563 563.477C172.33 570.187 159.608 572.159 148.496 572.159Z" fill="#1E1B1B"/>
<path d="M99.4459 462.115C100.452 441.355 114.033 423.345 129.211 406.181C129.211 406.181 150.59 455.58 99.4459 462.115Z" fill="#1E1B1B"/>
<path d="M99.8351 462.679L99.0568 461.565C124.501 443.609 128.5 406.489 128.541 406.114L129.896 406.248C129.856 406.624 125.803 444.361 99.8351 462.679Z" fill="#1E1B1B"/>
<path d="M131.023 509.542C127.615 489.036 137.089 468.557 148.295 448.575C148.295 448.575 179.63 492.337 131.023 509.542Z" fill="#1E1B1B"/>
<path d="M131.52 510.011L130.513 509.085C151.596 486.151 147.651 449.031 147.61 448.655L148.966 448.507C149.006 448.883 153.019 486.62 131.52 510.011Z" fill="#1E1B1B"/>
<path d="M170.035 551.587C162.896 532.06 168.425 510.186 175.739 488.486C175.739 488.472 214.616 525.686 170.035 551.587Z" fill="#1E1B1B"/>
<path d="M170.612 551.935L169.458 551.211C185.938 524.787 175.202 489.023 175.081 488.66L176.383 488.258C176.504 488.633 187.414 524.988 170.612 551.935Z" fill="#1E1B1B"/>
<path d="M80.4298 417.078C78.6986 396.357 89.797 376.724 102.573 357.708C102.573 357.708 130.272 403.859 80.4298 417.078Z" fill="#1E1B1B"/>
<path d="M80.8995 417.574L79.9736 416.581C102.841 395.431 101.902 358.11 101.902 357.735L103.257 357.694C103.271 358.07 104.224 395.995 80.8995 417.574Z" fill="#1E1B1B"/>
<path d="M74.6861 396.921C80.1614 376.872 72.8207 355.534 63.7219 334.518C63.7219 334.518 28.0918 374.859 74.6861 396.921Z" fill="#1E1B1B"/>
<path d="M74.1358 397.324C55.1331 371.866 62.9704 334.746 63.0509 334.37L64.3795 334.666C64.299 335.028 56.5959 371.571 75.2229 396.518L74.1358 397.324Z" fill="#1E1B1B"/>
</g>
<mask id="mask1_45_2" style="mask-type:luminance" maskUnits="userSpaceOnUse" x="0" y="0" width="587" height="580">
<path d="M532.026 135.795C479.339 65.8093 384.031 3.28557 294.197 32.0044C254.42 44.7265 219.971 69.3522 187.092 95.481C178.396 90.8913 168.237 88.5026 160.588 82.2489C138.887 64.521 146.939 25.4688 125.172 7.80811C109.605 -4.82011 85.1134 0.494208 70.3783 14.1021C55.6565 27.6965 48.3024 47.3032 41.4448 66.1449C33.8893 86.9056 26.3204 107.666 18.7649 128.44C9.41121 154.113 -0.063315 180.51 0.460065 207.833C0.849245 228.674 8.14973 257.018 19.8385 280.892C11.8671 301.075 6.86141 322.252 5.96227 343.966C4.04321 390.278 21.2074 436.403 49.7786 472.892C78.3498 509.381 117.778 536.57 160.601 554.311C233.203 584.412 316.984 587.633 390.982 561.142C464.98 534.65 528.188 478.26 561.027 406.852C576.527 373.127 585.384 336.303 586.23 299.197C587.558 240.591 567.146 182.443 532.026 135.795Z" fill="white"/>
</mask>
<g mask="url(#mask1_45_2)">
<path d="M403.946 539.965C485.553 478.635 540.065 381.354 549.767 279.751L548.063 279.59C538.401 380.737 484.144 477.562 402.912 538.596L403.946 539.965Z" fill="#1E1B1B"/>
<path d="M535.006 349.83C546.413 326.131 571.119 311.825 597.247 299.304C597.247 299.291 597.838 367.397 535.006 349.83Z" fill="#1E1B1B"/>
<path d="M535.193 350.676C574.474 342.114 597.771 300.136 597.999 299.72L596.496 298.901C596.268 299.317 573.32 340.611 534.831 348.998L535.193 350.676Z" fill="#1E1B1B"/>
<path d="M510.648 409.912C528.537 390.627 556.37 384.266 585.035 380.012C585.035 380.012 565.482 445.246 510.648 409.912Z" fill="#1E1B1B"/>
<path d="M525.021 410.502C558.611 406.53 585.331 380.924 585.639 380.629L584.445 379.394C584.109 379.73 549.996 412.394 510.729 409.053L510.581 410.757C515.479 411.186 520.324 411.052 525.021 410.502Z" fill="#1E1B1B"/>
<path d="M480.748 459.015C505.2 449.313 533.06 455.526 560.759 464.021C560.772 464.021 515.05 514.507 480.748 459.015Z" fill="#1E1B1B"/>
<path d="M538.629 469.47C551.74 467.926 560.839 464.907 561.04 464.84L560.49 463.216C560.047 463.363 515.184 478.193 481.191 458.277L480.319 459.753C499.59 471.053 522.23 471.402 538.629 469.47Z" fill="#1E1B1B"/>
<path d="M437.133 511.702C460.377 499.396 488.747 502.55 517.224 507.972C517.211 507.972 477.273 563.128 437.133 511.702Z" fill="#1E1B1B"/>
<path d="M482.104 518.198C502.086 515.836 517.318 508.871 517.573 508.75L516.848 507.193C516.419 507.394 473.435 527.015 437.482 510.924L436.785 512.494C451.869 519.244 468.147 519.848 482.104 518.198Z" fill="#1E1B1B"/>
<path d="M527.396 372.631C523.048 346.69 503.294 326.077 481.688 306.765C481.688 306.765 462.162 372.013 527.396 372.631Z" fill="#1E1B1B"/>
<path d="M526.98 373.396L527.799 371.893C493.162 353.118 482.627 307.061 482.52 306.591L480.842 306.967C480.95 307.423 491.645 354.232 526.98 373.396Z" fill="#1E1B1B"/>
<path d="M494.759 436.913C495.994 410.636 481.044 386.319 464.014 362.874C464.014 362.874 431.135 422.513 494.759 436.913Z" fill="#1E1B1B"/>
<path d="M494.209 437.57L495.323 436.268C465.423 410.583 464.873 363.358 464.873 362.874L463.155 362.888C463.155 363.358 463.718 411.374 494.209 437.57Z" fill="#1E1B1B"/>
<path d="M451.989 495.531C458.055 469.939 447.869 443.274 435.456 417.078C435.443 417.091 392.123 469.617 451.989 495.531Z" fill="#1E1B1B"/>
<path d="M451.318 496.068L452.66 494.994C428.035 464.236 436.207 417.709 436.301 417.239L434.61 416.93C434.517 417.4 426.196 464.692 451.318 496.068Z" fill="#1E1B1B"/>
<path d="M544.601 313.207C543.702 286.917 526.846 263.889 507.964 241.893C507.964 241.893 480.01 304.001 544.601 313.207Z" fill="#1E1B1B"/>
<path d="M544.091 313.905L545.097 312.509C513.211 289.319 508.85 242.296 508.81 241.826L507.092 241.974C507.146 242.457 511.588 290.259 544.091 313.905Z" fill="#1E1B1B"/>
<path d="M548.828 287.038C538.964 262.654 545.017 234.754 553.337 206.988C553.351 206.988 604.105 252.388 548.828 287.038Z" fill="#1E1B1B"/>
<path d="M549.58 287.467C569.683 252.656 554.317 207.176 554.156 206.719L552.532 207.283C552.68 207.726 567.791 252.495 548.09 286.622L549.58 287.467Z" fill="#1E1B1B"/>
</g>
<mask id="mask2_45_2" style="mask-type:luminance" maskUnits="userSpaceOnUse" x="0" y="0" width="587" height="580">
<path d="M532.026 135.795C479.339 65.8093 384.031 3.28557 294.197 32.0044C254.42 44.7265 219.971 69.3522 187.092 95.481C178.396 90.8913 168.237 88.5026 160.588 82.2489C138.887 64.521 146.939 25.4688 125.172 7.80811C109.605 -4.82011 85.1134 0.494208 70.3783 14.1021C55.6565 27.6965 48.3024 47.3032 41.4448 66.1449C33.8893 86.9056 26.3204 107.666 18.7649 128.44C9.41121 154.113 -0.063315 180.51 0.460065 207.833C0.849245 228.674 8.14973 257.018 19.8385 280.892C11.8671 301.075 6.86141 322.252 5.96227 343.966C4.04321 390.278 21.2074 436.403 49.7786 472.892C78.3498 509.381 117.778 536.57 160.601 554.311C233.203 584.412 316.984 587.633 390.982 561.142C464.98 534.65 528.188 478.26 561.027 406.852C576.527 373.127 585.384 336.303 586.23 299.197C587.558 240.591 567.146 182.443 532.026 135.795Z" fill="white"/>
</mask>
<g mask="url(#mask2_45_2)">
<path d="M230.519 150.583C228.734 153.684 227.003 188.522 232.774 187.985C238.544 187.448 253.065 188.643 254.702 185.69C256.353 182.738 256.111 147.47 253.749 147.819C251.374 148.181 232.291 147.483 230.519 150.583Z" fill="#D8D8D8"/>
<path d="M72.5434 30.3658C69.2543 31.4353 70.49 83.0028 73.0774 87.8504L77.5639 94.0043L76.5757 104.388L98.331 105.319L104.863 105.621C105.012 103.909 105.072 102.605 105.095 102.297C105.1 102.257 105.088 102.242 105.088 102.242C105.088 102.242 105.324 102.189 105.744 102.063C106.133 101.974 106.68 101.809 107.354 101.592C107.492 101.568 107.591 101.539 107.717 101.5C108.391 101.282 109.15 101.034 109.982 100.741C110.081 100.712 110.207 100.673 110.31 100.604C110.846 100.411 111.426 100.196 112.022 99.956C112.503 99.7698 113.001 99.5586 113.488 99.3325C116.651 97.9509 120.097 96.0216 122.62 93.5504C122.62 93.5504 122.62 93.5504 122.648 93.5402C123.349 92.8667 123.976 92.1436 124.505 91.328C124.533 91.3178 124.533 91.3178 124.533 91.3178C125.084 90.5453 125.507 89.717 125.826 88.8494C126.313 87.4747 126.801 86.1 127.328 84.7301C127.855 83.3601 128.419 82.0216 129.047 80.7176C130.279 78.0798 131.735 75.6037 133.709 73.4323C134.472 72.5769 135.259 71.7513 136.073 70.9288C136.583 70.3946 137.12 69.8502 137.646 69.291C138.173 68.7183 138.647 68.1394 139.135 67.5621C139.373 67.2659 139.582 66.98 139.823 66.6572C140.049 66.3461 140.249 66.0319 140.454 65.6644C141.046 64.667 141.55 63.6051 141.844 62.4913C142.139 61.3775 142.26 60.2432 142.163 59.1235C142.124 58.7676 142.05 58.3669 141.958 58.0046C141.89 57.7803 141.796 57.5395 141.674 57.3222C141.616 57.2343 141.533 57.1433 141.472 57.0821C141.338 56.9581 141.201 56.8608 141.034 56.7869C140.864 56.7397 140.681 56.6909 140.506 56.6837C140.143 56.6677 139.731 56.7269 139.382 56.8206L139.353 56.8308C139.27 56.848 139.212 56.8816 139.129 56.8988C130.95 59.4289 123.703 64.8129 118.929 71.9092C118.718 70.3841 112.279 18.4832 108.999 18.2159C107.743 18.094 106.663 18.3172 105.828 18.6371C104.373 19.1672 103.507 19.97 103.507 19.97C103.507 19.97 102.964 57.1368 101.811 58.4325C100.971 59.36 97.0192 42.9988 93.8958 32.8712C92.6382 28.7759 91.5019 25.7086 90.7481 25.2273C90.0109 24.721 88.8528 24.7998 87.5721 25.229C86.4177 25.6192 85.1016 26.2334 83.9539 26.9081C82.0047 27.9608 80.4756 29.1173 80.4756 29.1173C80.4756 29.1173 80.0295 29.1185 79.3058 29.1813C78.3492 29.2705 76.9253 29.426 75.3923 29.7037C74.4161 29.8447 73.4288 30.0789 72.5434 30.3658Z" fill="#F3A080"/>
<path d="M83.9422 26.8932C84.0581 27.8529 84.1858 28.8276 84.3385 29.8187C85.2504 35.5757 86.7391 40.6849 88.027 44.2972C89.2335 47.6837 90.2123 49.7999 90.332 50.0438C90.3237 49.7725 90.2357 47.4377 89.9552 43.8773C89.6499 40.0706 89.1311 34.8738 88.2364 29.1999C88.0197 27.8363 87.785 26.5111 87.5588 25.2275C86.3793 25.6011 85.1016 26.2334 83.9422 26.8932Z" fill="#B54B57"/>
<path d="M75.3939 29.6903C76.6553 38.8809 79.2672 46.0287 79.4298 46.4805C79.4867 46.0007 80.2779 38.4186 79.294 29.1664C78.3492 29.2705 76.8987 29.4228 75.3939 29.6903Z" fill="#B54B57"/>
<path d="M139.37 56.8057C139.226 57.4508 139.072 58.0677 138.906 58.6697C137.447 63.5644 133.348 67.1325 130.418 71.3257C126.381 77.104 124.427 84.3456 119.383 89.2746C115.117 93.4579 109.238 95.3959 103.749 97.691C102.054 98.4225 100.28 99.2526 99.3262 100.802C98.9721 101.395 98.748 102.031 98.5859 102.714C98.4479 103.536 98.3766 104.365 98.3319 105.197C98.3271 105.237 98.3106 105.263 98.3459 105.307L104.878 105.609C105.027 103.897 105.087 102.593 105.11 102.285C105.115 102.245 105.103 102.23 105.103 102.23C105.103 102.23 105.339 102.177 105.759 102.051C106.137 101.947 106.695 101.797 107.369 101.58C107.507 101.556 107.605 101.527 107.732 101.488C108.406 101.27 109.154 101.008 109.997 100.729C110.095 100.701 110.222 100.661 110.324 100.593C110.861 100.399 111.44 100.184 112.037 99.9442C112.518 99.7581 113.016 99.5469 113.502 99.3207C116.666 97.9392 120.112 96.0098 122.634 93.5387C122.634 93.5387 122.634 93.5387 122.663 93.5285C123.339 92.8384 123.98 92.1036 124.52 91.3162C124.548 91.3061 124.548 91.3061 124.548 91.3061C125.087 90.5186 125.511 89.677 125.829 88.8228C126.316 87.4481 126.804 86.0734 127.343 84.7183C127.87 83.3484 128.434 82.0098 129.062 80.7059C130.294 78.068 131.75 75.592 133.724 73.4206C134.487 72.5651 135.274 71.7395 136.088 70.9171C136.597 70.3829 137.135 69.8385 137.661 69.2792C138.188 68.7066 138.662 68.1277 139.15 67.5503C139.376 67.2393 139.587 66.94 139.813 66.629C140.039 66.3179 140.239 66.0037 140.454 65.6644C141.046 64.667 141.55 63.6051 141.844 62.4913C142.165 61.3807 142.3 60.2479 142.163 59.1235C142.124 58.7676 142.05 58.3669 141.958 58.0046C141.89 57.7803 141.796 57.5395 141.674 57.3222C141.616 57.2343 141.573 57.1481 141.501 57.0719C141.367 56.948 141.204 56.8341 141.034 56.7869C140.867 56.7131 140.681 56.6909 140.506 56.6837C140.131 56.6528 139.732 56.7136 139.37 56.8057Z" fill="#F8BF92"/>
<path d="M87.1131 87.3258C88.7921 78.5245 96.7565 71.3066 105.675 70.513C107.752 70.3268 109.936 70.4778 111.749 71.4901C106.292 68.0455 98.9837 67.3409 93.4768 70.7014C87.9817 74.0769 86.5249 80.8909 87.1131 87.3258Z" fill="#B54B57"/>
<path d="M214.522 269.605C215.1 273.538 215.395 277.47 215.395 281.402C215.395 297.345 210.658 313.019 201.653 326.399L201.29 326.09L85.7576 228.178L75.6255 159.843L74.6861 153.482L67.3319 103.868L75.5315 103.52L123.226 101.493L143.437 194.641L217.314 248.885L214.522 269.605Z" fill="white"/>
<path d="M126.071 199.419C129.896 198.399 133.694 197.325 137.532 196.373C139.612 195.863 141.33 198.372 139.746 200.009C137.975 201.835 136.499 203.888 135.304 206.129C134.204 208.196 133.627 210.49 132.513 212.544C131.963 213.537 130.46 213.121 130.406 212.034C130.218 208.759 131.506 205.351 133.197 202.251C131.453 202.747 129.695 203.244 127.95 203.754C126.313 204.223 122.461 205.834 121.683 203.109C120.931 200.519 124.461 199.848 126.071 199.419Z" fill="#D8D8D8"/>
<path d="M203.223 312.442L201.29 326.09L85.7576 228.178L75.6255 159.843L75.5181 156.005L74.6861 153.482L67.3319 103.868L75.5315 103.52L93.5412 225.588L203.223 312.442Z" fill="#D8D8D8"/>
<path d="M394.377 868.245L383.655 869.775L381.655 870.057L349.863 874.539C349.863 874.539 328.083 773.849 326.62 764.629C325.305 756.309 322.688 700.468 322.191 690.282C322.191 689.973 322.164 689.665 322.164 689.45C322.137 688.954 322.137 688.685 322.137 688.685L295.968 523.566L275.852 676.554C275.852 676.554 282.092 725.59 282.092 732.045C282.092 734.354 273.825 866.366 272.322 888.885H226.426C214.764 796.904 207.906 688.417 207.115 677.453C206.779 672.568 210.644 608.42 214.361 549.238C215.596 529.189 216.871 509.689 217.918 493.277C218.347 486.768 218.723 480.715 219.085 475.334C220.159 458.747 220.83 448.185 220.83 448.185L387.869 456.009L387.466 533.832L386.755 677.466C386.755 677.466 392.458 722.544 394.377 734.152C396.337 745.747 394.377 868.245 394.377 868.245Z" fill="#434356"/>
<path d="M394.377 868.245L383.655 869.775L381.655 870.056C381.897 828.038 382.353 760.12 383.252 751.209C384.54 738.192 376.864 673.118 376.864 673.118L372.878 479.897C334.699 487.613 244.637 478.233 219.085 475.321C220.159 458.734 220.83 448.172 220.83 448.172L387.869 455.996L387.466 533.818L386.755 677.453C386.755 677.453 392.458 722.53 394.377 734.139C396.337 745.747 394.377 868.245 394.377 868.245Z" fill="#343345"/>
<path d="M275.838 676.554C275.838 676.554 282.092 725.59 282.092 732.045C282.092 734.354 273.812 866.366 272.309 888.885H259.023C261.6 862.34 273.154 742.66 271.437 734.622C269.477 725.604 263.049 675.238 263.049 675.238L295.968 523.552L275.838 676.554Z" fill="#343345"/>
<path d="M383.252 513.447C336.363 520.573 291.392 518.962 263.613 516.641C256.084 516.023 249.831 515.339 245.134 514.762C238.893 514.01 235.417 513.447 235.417 513.447C235.417 513.447 240.866 300.243 246.878 252.763C247.576 247.234 248.287 243.973 248.998 243.517C251.266 242.081 255.266 240.175 259.587 238.27C268.068 234.526 277.744 230.795 277.744 230.795L316.286 221.307L337.893 230.003L350.668 235.17L357.768 238.042C361.149 246.134 383.252 513.447 383.252 513.447Z" fill="#3268B7"/>
<path d="M350.668 235.17C342.71 245.852 334.028 255.904 323.278 263.634C307.778 274.812 286.95 280.462 269.263 273.269C259.654 269.364 251.911 261.849 246.878 252.777C247.563 247.248 248.287 243.987 248.998 243.53C251.266 242.094 255.266 240.189 259.587 238.283C268.068 234.539 277.744 230.795 277.744 230.795L316.286 221.307L337.879 230.003L350.668 235.17Z" fill="#1F3356"/>
<path opacity="0.41" d="M269.263 273.269L263.613 516.641C256.084 516.023 249.83 515.339 245.133 514.762L252.689 280.811L263.21 270.183L269.263 273.269Z" fill="#1F3356"/>
<path d="M337.879 229.99C327.465 256.132 288.373 257.93 274.832 257.259C264.552 256.763 260.835 244.752 259.573 238.256C268.055 234.512 277.731 230.768 277.731 230.768L316.273 221.28L337.879 229.99Z" fill="#F3A080"/>
<path d="M315.803 230.406C314.877 231.224 274.832 257.272 274.832 257.272C274.832 257.272 276.764 239.853 277.744 230.781C278.039 227.977 278.241 225.964 278.267 225.507C278.482 221.871 276.335 205.914 276.335 205.914L316.085 190.562C316.085 190.562 316.219 198.573 316.273 207.417C316.353 218.086 316.313 229.949 315.803 230.406Z" fill="#F3A080"/>
<path d="M316.273 207.417C305.054 214.57 280.361 230.204 277.945 230.741C277.878 230.755 277.798 230.768 277.731 230.768C278.026 227.963 278.227 225.95 278.254 225.494C278.469 221.857 276.322 205.901 276.322 205.901L316.072 190.548C316.085 190.562 316.219 198.573 316.273 207.417Z" fill="#EA7C6F"/>
<path d="M319.145 194.588C319.145 194.588 317.856 197.258 313.119 200.56H313.106C312.14 201.244 311.012 201.942 309.737 202.667C304.852 205.391 260.473 218.636 254.058 217.012C247.643 215.389 244.087 192.306 244.02 189.904C243.59 175.223 242.973 129.917 242.973 129.917C264.646 83.1212 319.078 114.913 325.036 120.442C330.995 125.985 319.145 194.588 319.145 194.588Z" fill="#F3A080"/>
<path d="M313.106 200.56C312.14 201.244 311.012 201.942 309.737 202.667C304.852 205.391 260.473 218.636 254.058 217.012C247.643 215.389 244.087 192.306 244.02 189.904C246.945 200.197 249.965 214.329 254.621 214.422C261.654 214.583 307.671 202.68 313.106 200.56Z" fill="#F8BF92"/>
<path d="M246.019 147.564C246.019 147.564 251.75 135.781 256.822 139.042C261.895 142.303 260.043 143.095 260.043 143.095L246.019 147.564Z" fill="#444444"/>
<path d="M307.563 140.934C307.563 140.934 292.197 125.099 286.615 131.339C283.354 134.976 285.89 137.19 285.89 137.19L307.563 140.934Z" fill="#444444"/>
<path d="M296.384 158.139C295.861 162.635 293.177 166.016 290.386 165.694C287.581 165.372 285.742 161.467 286.252 156.971C286.776 152.476 289.46 149.094 292.251 149.416C295.042 149.738 296.894 153.643 296.384 158.139Z" fill="#1D1E1E"/>
<path d="M303.121 155.535C303.121 155.535 301.014 158.126 297.78 159.025C294.546 159.924 291.406 158.783 291.406 158.783C291.406 158.783 293.513 156.193 296.747 155.294C299.981 154.395 303.121 155.535 303.121 155.535Z" fill="white"/>
<path d="M249.079 156.824C248.69 160.206 250.085 163.158 252.192 163.4C254.299 163.641 256.326 161.091 256.715 157.709C257.104 154.328 255.708 151.375 253.602 151.134C251.495 150.892 249.468 153.442 249.079 156.824Z" fill="#1D1E1E"/>
<path d="M246.14 153.469C246.14 153.469 247.267 155.428 249.361 156.569C251.454 157.709 253.722 157.602 253.722 157.602C253.722 157.602 252.595 155.643 250.502 154.502C248.408 153.361 246.14 153.469 246.14 153.469Z" fill="white"/>
<path d="M251.83 177.262C250.958 178.967 247.093 178.725 243.188 176.739C239.282 174.739 236.827 171.747 237.699 170.042C238.571 168.338 242.436 168.58 246.341 170.566C250.247 172.565 252.702 175.558 251.83 177.262Z" fill="#EA7C6F"/>
<path d="M304.101 174.86C304.49 177.625 299.672 180.591 293.338 181.476C287.004 182.362 281.555 180.832 281.166 178.068C280.777 175.303 285.608 172.337 291.942 171.452C298.263 170.566 303.712 172.096 304.101 174.86Z" fill="#EA7C6F"/>
<path d="M258.97 173.465C259.251 174.713 259.909 175.907 260.701 176.967C261.788 178.336 263.157 179.477 264.472 180.604C267.719 180.349 270.752 178.336 272.269 175.464C271.88 175.491 271.504 175.531 271.115 175.558C268.176 175.8 265.384 175.786 262.512 174.927C261.291 174.578 260.097 174.082 258.97 173.465Z" fill="#EA7C6F"/>
<path d="M258.07 170.284C258.325 169.197 259.023 168.191 259.896 167.6C260.781 166.996 261.747 166.728 262.62 166.674C264.431 166.526 265.934 167.238 266.928 167.882C267.022 167.949 267.115 168.003 267.209 168.097C266.753 166.11 266.216 163.44 265.908 160.487C265.237 154.193 265.733 149 265.733 149C265.733 149 267.37 153.979 268.041 160.259C268.404 163.722 268.417 166.875 268.364 168.969C268.364 169.224 268.337 169.452 268.337 169.653C268.095 169.519 267.827 169.412 267.518 169.278C267.209 169.143 266.847 168.996 266.471 168.848C265.425 168.472 264.163 168.204 262.861 168.486C261.56 168.741 260.459 169.506 260.164 170.807C259.828 172.163 260.124 173.773 260.553 175.088C261.009 176.404 261.694 177.558 262.378 178.417C263.063 179.302 263.774 179.92 264.284 180.336C264.767 180.725 265.102 180.913 265.102 180.913C265.102 180.913 264.727 180.846 264.096 180.617C263.492 180.376 262.58 179.96 261.627 179.195C260.647 178.417 259.641 177.289 258.902 175.786C258.164 174.283 257.574 172.431 258.07 170.284Z" fill="#DD5B67"/>
<path d="M291.312 183.543L259.131 187.864C259.131 187.864 262.62 204.062 276.912 202.076C286.481 200.747 294.278 192.87 291.312 183.543Z" fill="white"/>
<path d="M312.717 195.594C321.507 195.916 328.445 191.474 332.337 187.542C333.209 186.656 333.934 185.798 334.484 185.019C337.49 180.792 339.999 165.238 334.028 160.863C329.827 157.803 326.137 161.118 324.312 163.386V163.4C323.533 164.366 323.09 165.131 323.09 165.131L312.717 195.594Z" fill="#CC836D"/>
<path d="M312.717 195.594C321.507 195.916 328.445 191.474 332.337 187.542C332.686 187.14 332.981 186.737 333.249 186.375C336.255 182.147 338.765 166.594 332.78 162.219C329.384 159.736 326.311 161.44 324.298 163.386V163.4C323.52 164.366 323.077 165.131 323.077 165.131L312.717 195.594Z" fill="#F3A080"/>
<path d="M334.618 173.518C334.793 174.807 334.444 176.081 333.893 177.276C331.545 182.322 325.841 185.73 320.393 188.871C322.205 186.495 323.09 183.691 323.104 180.859C323.104 179.866 323.01 178.873 323.117 177.907C323.506 173.948 333.571 165.896 334.618 173.518Z" fill="#CC836D"/>
<path d="M317.682 190.065C317.682 190.065 317.789 190.025 317.991 189.931C318.179 189.837 318.501 189.73 318.85 189.542C319.574 189.166 320.581 188.562 321.587 187.596C322.58 186.63 323.533 185.301 324.11 183.664C324.647 182.027 324.795 180.067 324.11 178.081C324.043 177.826 323.936 177.585 323.828 177.356L323.748 177.182C323.734 177.142 323.734 177.169 323.734 177.155C323.734 177.155 323.734 177.169 323.748 177.128L323.842 176.981L324.043 176.699C324.177 176.511 324.311 176.336 324.459 176.149C325.023 175.437 325.613 174.766 326.217 174.162C326.821 173.559 327.438 172.995 328.042 172.498C328.646 172.002 329.237 171.532 329.8 171.21C330.364 170.875 330.968 170.687 331.505 170.673C332.041 170.673 332.538 170.848 332.86 171.062C333.182 171.277 333.357 171.519 333.41 171.693C333.477 171.868 333.464 171.962 333.464 171.962C333.464 171.962 333.504 171.868 333.477 171.68C333.464 171.492 333.357 171.197 333.048 170.901C332.739 170.62 332.229 170.324 331.518 170.217C330.807 170.123 330.015 170.284 329.29 170.579C328.552 170.888 327.881 171.304 327.17 171.76C326.459 172.217 325.734 172.753 325.036 173.344C324.338 173.948 323.64 174.605 322.996 175.357C322.835 175.545 322.674 175.733 322.527 175.92L322.299 176.216L321.99 176.632L321.775 176.927C321.815 177.034 321.869 177.142 321.909 177.262L322.111 177.732C322.205 177.933 322.299 178.148 322.352 178.363C322.943 180.081 322.929 181.812 322.607 183.328C322.245 184.845 321.574 186.146 320.822 187.153C320.071 188.159 319.252 188.884 318.648 189.354C318.353 189.595 318.085 189.743 317.924 189.864C317.776 189.998 317.682 190.065 317.682 190.065Z" fill="#8E503D"/>
<path d="M343.569 139.7C344.267 147.712 340.563 156.529 335.987 163.158C332.766 161.776 328.995 162.5 326.083 164.446C325.788 164.634 325.506 164.836 325.237 165.037C322.218 167.399 319.843 170.405 317.856 173.679C313.804 166.822 316.018 158.166 318.071 150.476C320.151 142.773 321.654 133.728 316.622 127.568C313.159 123.327 307.362 121.663 301.9 121.65C296.452 121.637 291.084 123.046 285.689 123.891C280.294 124.737 274.564 124.978 269.585 122.777C271.222 125.367 272.832 127.957 274.47 130.534C270.363 131.849 266.109 133.191 261.815 132.842C257.493 132.48 253.065 129.97 251.803 125.837C248.435 129.259 246.596 134.117 246.851 138.921C242.517 138.089 238.665 135.137 236.759 131.165C234.827 127.192 234.921 122.334 236.974 118.429C233.874 121.059 230.68 124.468 229.217 128.239C228.104 126.146 227.325 123.958 226.896 121.623C225.366 114.094 227.312 105.814 232.358 99.9767C238.92 92.3541 250.34 89.3346 259.815 92.7164C270.846 96.6216 283.045 90.2606 294.761 90.0593C323.627 89.603 332.914 117.678 332.914 117.678C332.914 117.678 341.69 117.396 343.569 139.7Z" fill="#1D1E1E"/>
<path d="M343.569 139.7C343.878 143.337 343.301 147.161 342.106 150.865C340.711 155.294 338.483 159.535 335.987 163.158C332.766 161.776 328.995 162.5 326.083 164.446C325.895 163.561 325.801 162.675 325.747 161.789C325.506 157.83 326.11 153.818 327.532 150.127C328.713 147.041 330.431 144.169 331.397 141.028C332.35 137.888 332.444 134.198 330.512 131.541C328.606 128.857 324.204 127.931 321.963 130.333C321.131 123.864 316.139 118.456 310.194 115.732C304.275 113.007 297.512 112.632 291.003 113.115C284.494 113.571 278.039 114.859 271.544 115.249C266.673 115.544 260.821 114.806 258.634 110.444C257.936 114.752 258.205 119.221 259.453 123.381C253.776 122.361 248.931 117.745 247.643 112.149C245.402 114.578 243.872 117.664 243.268 120.925C240.49 116.792 239.967 111.263 241.913 106.714C235.176 109.398 229.687 114.927 226.882 121.61C225.849 116.456 226.413 110.941 228.533 106.096C229.472 103.882 230.774 101.802 232.344 99.9498C238.907 92.3273 250.327 89.3078 259.802 92.6896C270.833 96.5948 283.032 90.2337 294.747 90.0324C323.614 89.5762 332.9 117.651 332.9 117.651C332.9 117.651 341.69 117.396 343.569 139.7Z" fill="#444444"/>
<path d="M343.569 139.7C343.878 143.337 343.301 147.161 342.106 150.865C341.019 149.496 340.174 147.953 339.61 146.302C338.429 148.919 337.275 151.536 336.094 154.14C334.363 150.597 334.833 146.383 335.504 142.491C336.175 138.573 337.02 134.547 336.014 130.722C335.007 126.897 331.357 123.408 327.465 124.119C325.935 116.899 320.366 110.927 313.75 107.626C307.12 104.365 299.538 103.466 292.144 103.667C284.763 103.868 277.435 105.103 270.081 105.868C263.881 106.526 256.541 106.338 252.877 101.292C252.313 104.191 251.763 107.062 251.213 109.921C249.522 107.197 248.556 104.056 248.381 100.876C246.757 102.902 245.778 105.439 245.617 108.042C243.872 105.452 243.214 102.124 243.818 99.0507C238.303 100.352 233.082 102.768 228.546 106.11C229.486 103.895 230.788 101.815 232.358 99.9632C238.92 92.3407 250.34 89.3212 259.815 92.703C270.846 96.6082 283.045 90.2471 294.761 90.0458C323.627 89.5896 332.914 117.664 332.914 117.664C332.914 117.664 341.69 117.396 343.569 139.7Z" fill="#595959"/>
<path d="M259.587 238.27L255.279 515.862L254.903 539.723C254.903 539.723 197.318 543.065 193.077 534.57C192.366 533.161 192.178 524.653 192.38 511.42C193.453 445.233 204.753 260.52 212.241 253.985C221.206 246.161 259.587 238.27 259.587 238.27Z" fill="#C23D37"/>
<path d="M406.294 532.611C389.305 539.146 343.65 536.355 343.65 536.355C343.059 533.684 342.536 527.149 342.053 517.714C338.577 449.501 337.879 230.003 337.879 230.003C337.879 230.003 380.837 241.772 383.708 244.966C391.385 252.737 401.785 448.266 405.207 512.105C405.918 524.934 406.294 532.611 406.294 532.611Z" fill="#C23D37"/>
<path d="M255.252 515.876H255.279L254.903 539.737C254.903 539.737 197.318 543.078 193.077 534.583C192.366 533.174 192.178 524.666 192.38 511.434L255.252 515.876Z" fill="white"/>
<path d="M406.294 532.611C389.305 539.146 343.65 536.355 343.65 536.355C343.059 533.684 342.536 527.149 342.053 517.714L405.221 512.118C405.919 524.934 406.294 532.611 406.294 532.611Z" fill="white"/>
<path d="M277.744 230.768C277.744 230.768 242.946 232.271 235.417 244.295C227.889 256.32 258.983 310.268 258.983 310.268L265.626 247.395L277.744 230.768Z" fill="white"/>
<path d="M316.286 221.293C316.286 221.293 360.975 218.1 365.793 239.33C370.624 260.56 338.349 310.268 338.349 310.268L337.893 247.825L316.286 221.293Z" fill="white"/>
<path d="M300.679 506.442L311.563 512.239L358.439 537.214L362.975 539.643L367.323 541.938L371.859 544.367L376.193 546.688L380.756 549.104L386.46 552.15L416.44 568.187L456.284 493.451L466.778 473.751L350.99 412.032L347.77 418.098L347.555 418.514L344.898 423.466L340.496 431.733L339.677 433.289L337.02 438.241L336.94 438.402L334.269 443.381L334.296 443.408L329.049 453.218L326.392 458.17L319.668 470.798L319.682 470.812L305.631 497.142L304.047 500.134L300.679 506.442Z" fill="#BD4761"/>
<path d="M351.017 412.048L340.519 431.743L456.309 493.463L466.808 473.768L351.017 412.048Z" fill="#932F49"/>
<mask id="mask3_45_2" style="mask-type:luminance" maskUnits="userSpaceOnUse" x="300" y="412" width="167" height="157">
<path d="M300.679 506.442L311.563 512.239L358.439 537.214L362.975 539.643L367.323 541.938L371.859 544.367L376.193 546.688L380.756 549.104L386.46 552.15L416.44 568.187L456.284 493.451L466.778 473.751L350.99 412.032L347.77 418.098L347.555 418.514L344.898 423.466L340.496 431.733L339.677 433.289L337.02 438.241L336.94 438.402L334.269 443.381L334.296 443.408L329.049 453.218L326.392 458.17L319.668 470.798L319.682 470.812L305.631 497.142L304.047 500.134L300.679 506.442Z" fill="white"/>
</mask>
<g mask="url(#mask3_45_2)">
<path d="M463.809 494.146L339.839 424.664L293.348 507.615L417.317 577.096L463.809 494.146Z" fill="#243F7A"/>
<mask id="mask4_45_2" style="mask-type:luminance" maskUnits="userSpaceOnUse" x="293" y="424" width="171" height="154">
<path d="M463.809 494.146L339.839 424.664L293.348 507.615L417.317 577.096L463.809 494.146Z" fill="white"/>
</mask>
<g mask="url(#mask4_45_2)">
<path d="M409.622 584.13L388.285 510.186L459.491 485.158L453.546 465.846L382.675 490.767L361.445 417.172L342.63 423.399L363.968 497.343L292.748 522.371L298.693 541.683L369.564 516.775L390.808 590.357L409.622 584.13Z" fill="white"/>
<path d="M297.941 525.055L369.081 500.04L347.77 426.177L358.653 422.58L379.911 496.242L450.862 471.295L454.298 482.474L383.158 507.488L404.483 581.352L393.586 584.962L372.328 511.3L301.39 536.234L297.941 525.055Z" fill="#C23D37"/>
<path d="M385.372 526.505L439.052 556.78L458.35 520.828L404.55 490.485L422.439 456.922L388.177 437.731L370.356 471.187L326.459 446.401L307.161 482.353L351.178 507.193L328.566 549.641L362.827 568.831L385.372 526.505Z" fill="white"/>
<path d="M382.688 516.587L439.723 548.742L452.097 525.686L394.981 493.491L412.857 459.928L390.875 447.622L373.053 481.105L319.118 450.695L306.745 473.764L360.747 504.201L338.148 546.635L360.129 558.941L382.688 516.587Z" fill="#C23D37"/>
</g>
</g>
<path d="M351.004 412.045L347.783 418.098L347.555 418.514L344.911 423.466L340.509 431.733L339.691 433.303L337.034 438.255L336.953 438.416L334.283 443.394L334.309 443.408L329.062 453.218L326.405 458.17L319.668 470.798L319.695 470.812L305.644 497.142L304.061 500.134L300.692 506.442L311.576 512.239L358.452 537.214L362.988 539.643L367.336 541.938L371.872 544.38L376.207 546.688L380.769 549.104L386.473 552.15L386.46 552.177L416.453 568.187L413.34 574.146L412.199 576.346L333.451 535.268L333.424 535.254L307.389 521.687L292.144 513.742L289.621 512.414L291.258 509.448L306.101 482.259L313.79 468.195L320.634 455.62L323.359 450.668L328.66 440.912L331.384 435.96L331.867 435.088L334.538 430.149L339.879 420.406L341.905 416.689L343.368 415.937L351.004 412.045Z" fill="#932F49"/>
<path d="M347.783 418.098L347.555 418.514L344.911 423.466L340.509 431.733L339.691 433.303L337.034 438.255L336.953 438.416L334.309 443.408L329.062 453.218L326.405 458.17L319.668 470.798L319.695 470.812L305.644 497.142L304.061 500.134L300.692 506.442L311.576 512.239L358.425 537.241L358.452 537.214L362.988 539.643L367.323 541.964L371.872 544.38L376.207 546.688L380.743 549.131L386.46 552.177L416.453 568.187L413.34 574.146L309.268 517.473L294.613 509.407L316.367 469.349L323.238 456.747L325.908 451.809L331.223 442.039L333.92 437.087L334.215 436.51L336.899 431.571L342.2 421.829L343.462 419.507L347.179 418.286L347.783 418.098Z" fill="#FEF1E8"/>
<path d="M401.342 517.366C401.342 517.366 366.356 546.769 354.158 548.943C352.198 549.292 349.742 549.064 347.005 548.406C345.086 547.95 343.019 547.265 340.872 546.433C340.858 546.42 340.832 546.42 340.818 546.406C339.235 545.789 337.597 545.091 335.974 544.3C335.316 543.991 334.672 543.669 334.041 543.347C332.364 542.488 330.686 541.575 329.049 540.622C327.975 539.992 326.915 539.361 325.895 538.69C323.882 537.428 321.99 536.127 320.245 534.825C316.81 532.289 314.018 529.779 312.381 527.672C311.321 526.303 310.73 525.109 310.744 524.169C310.891 517.473 329.639 527.015 335.195 524.424C340.187 522.103 346.803 511.192 343.328 509.166C342.938 508.951 342.442 508.83 341.784 508.844C335.276 509.032 325.707 511.917 321.936 509.421C318.192 506.925 340.161 497.665 347.206 494.592C354.238 491.519 376.569 493.746 376.569 493.746L376.596 494.86L377.455 496.726L401.342 517.366Z" fill="#F3A080"/>
<path d="M341.113 534.033C339.745 535.885 337.678 537.173 335.49 537.965C333.289 538.744 330.928 539.052 328.646 538.972C327.72 538.931 326.794 538.837 325.882 538.703C323.869 537.442 321.976 536.14 320.232 534.838C320.997 534.879 321.762 534.932 322.513 534.973C324.647 535.107 326.727 535.268 328.754 535.335C330.793 535.402 332.806 535.362 334.833 535.174C336.873 534.986 338.886 534.624 341.113 534.033Z" fill="#B54B57"/>
<path d="M353.836 537.724C352.695 539.643 351.111 541.226 349.353 542.541C347.582 543.843 345.609 544.89 343.529 545.628C342.643 545.95 341.758 546.219 340.832 546.406C339.248 545.789 337.611 545.091 335.987 544.299C336.175 544.232 336.376 544.179 336.564 544.112C338.51 543.494 340.416 542.85 342.294 542.179C344.173 541.508 346.052 540.783 347.944 540.018C349.836 539.28 351.742 538.462 353.836 537.724Z" fill="#B54B57"/>
<path d="M377.455 496.752C367.068 496.94 356.842 497.329 352.708 498.121C342.912 499.96 321.95 509.434 321.95 509.434C318.205 506.938 340.174 497.678 347.219 494.605C354.252 491.532 376.582 493.76 376.582 493.76L376.609 494.874L377.455 496.752Z" fill="#F8BF92"/>
<path opacity="0.51" d="M345.609 514.95C345.515 518.667 342.455 527.457 338.362 527.914C335.45 528.249 320.836 528.088 312.368 527.672C311.308 526.303 310.717 525.109 310.731 524.169C310.878 517.473 329.626 527.014 335.182 524.424C340.174 522.103 346.79 511.192 343.314 509.166C343.744 508.965 343.972 508.844 343.972 508.844C343.972 508.844 345.69 511.233 345.609 514.95Z" fill="#EA7C6F"/>
<path d="M463.437 414.125C457.666 426.673 402.054 531.832 402.751 523.566L371.791 497.168L363.404 490.029C369.591 466.007 384.822 437.221 409.636 403.363L382.715 322.427L382.42 309.745L380.904 244.309C380.904 244.309 405.784 252.669 414.158 256.239C433.403 264.466 467.261 405.832 463.437 414.125Z" fill="white"/>
<path d="M416.453 404.463C416.453 404.463 384.178 473.59 371.791 497.168L363.404 490.029C369.591 466.007 384.822 437.221 409.636 403.363L382.715 322.427L382.42 309.745L416.453 404.463Z" fill="#D8D8D8"/>
<path d="M328.391 154.69C328.391 154.69 339.369 94.1792 274.241 93.3874C274.241 93.3874 279.623 89.5627 290.641 90.0459C301.659 90.5156 328.686 98.6347 333.491 113.517C338.295 128.4 338.523 156.77 338.523 156.77L328.391 154.69Z" fill="white"/>
<path d="M218.978 307.383C215.65 311.53 213.382 316.629 213.154 321.943C212.926 327.258 214.885 332.747 218.844 336.289C222.803 339.832 228.815 341.134 233.7 339.027C236.853 337.672 239.323 335.082 241.389 332.344C246.462 325.647 250.837 313.288 244.328 305.947C236.8 297.465 225.701 299.009 218.978 307.383Z" fill="white"/>
<path d="M228.654 334.652C226.426 334.652 224.091 333.753 222.413 332.263C219.837 329.955 218.334 326.09 218.508 322.158C218.669 318.32 220.32 314.267 223.165 310.724C225.755 307.504 229.177 305.652 232.559 305.652C235.404 305.652 238.088 306.98 240.316 309.503C244.597 314.321 240.933 324.037 237.108 329.096C235.109 331.727 233.351 333.31 231.579 334.089C230.68 334.464 229.701 334.652 228.654 334.652Z" fill="#243F7A"/>
<path d="M336.43 193.514C333.142 194.292 320.312 190.937 314.515 191.018C312.985 191.045 313.106 187.113 313.965 181.812C315.602 171.653 319.91 156.448 320.379 154.019C320.849 151.563 330.874 153.375 337.664 154.905C340.617 155.549 342.952 156.153 343.65 156.327C348.803 157.616 341.758 192.253 336.43 193.514Z" fill="#D8D8D8"/>
<path opacity="0.41" d="M281.435 397.74C281.73 399.216 282.173 400.893 283.501 401.605C285.769 402.812 288.171 400.343 289.594 398.209C299.136 383.796 310.341 370.497 322.916 358.634C324.231 359.144 324.821 360.768 324.593 362.163C324.365 363.559 323.533 364.767 322.715 365.907C312.26 380.669 301.806 395.431 291.352 410.193C290.05 412.032 288.695 413.924 286.803 415.145C284.91 416.367 282.32 416.783 280.415 415.561C278.428 414.286 277.798 411.723 277.462 409.388C276.483 402.571 276.657 395.646 276.832 388.762C276.872 387.138 277.207 386.104 278.925 385.917C280.012 389.688 280.643 393.821 281.435 397.74Z" fill="#1F3356"/>
<path d="M201.827 512.105C201.827 512.105 201.586 530.517 201.827 538.515" stroke="#3268B7" stroke-miterlimit="10"/>
<path d="M216.643 513.152C216.643 513.152 218.267 535.966 219.085 540.381" stroke="#3268B7" stroke-miterlimit="10"/>
<path opacity="0.85" d="M336.43 193.514C333.142 194.292 320.312 190.937 314.515 191.018C312.985 191.045 313.106 187.113 313.965 181.812C314.609 181.275 315.293 180.792 316.045 180.456C317.548 179.785 319.239 179.745 320.876 179.745C324.164 179.759 327.519 179.906 330.726 179.114C333.934 178.323 337.047 176.43 338.403 173.424C339.315 171.411 339.369 169.13 339.369 166.916C339.355 162.876 338.282 158.89 337.664 154.905C340.617 155.549 342.952 156.153 343.65 156.327C348.803 157.616 341.758 192.253 336.43 193.514Z" fill="#1F3356"/>
<path d="M255.373 171.291C248.797 172.619 242.221 167.64 240.718 160.192C239.215 152.744 243.335 145.591 249.911 144.263C256.487 142.934 263.063 147.913 264.566 155.361C266.069 162.809 261.949 169.962 255.373 171.291ZM250.555 147.497C245.764 148.463 242.798 153.871 243.939 159.548C245.093 165.225 249.924 169.049 254.715 168.07C259.506 167.104 262.472 161.695 261.331 156.019C260.191 150.342 255.346 146.517 250.555 147.497Z" fill="#FFF6F3"/>
<path d="M294.09 176.766C284.548 178.698 275.208 172.512 273.275 162.957C271.343 153.415 277.529 144.075 287.084 142.142C296.626 140.21 305.966 146.396 307.899 155.951C309.818 165.493 303.631 174.833 294.09 176.766ZM287.729 145.363C279.958 146.933 274.926 154.529 276.496 162.299C278.066 170.069 285.662 175.102 293.432 173.532C301.202 171.962 306.235 164.366 304.665 156.596C303.094 148.839 295.499 143.793 287.729 145.363Z" fill="#FFF6F3"/>
<path d="M274.738 158.26C269.585 154.771 263.264 158.81 262.995 158.984" stroke="#FFF6F3" stroke-width="3" stroke-miterlimit="10"/>
<path d="M317.749 167.063C314.434 164.473 308.127 165.345 306.007 165.909L305.175 162.715C305.55 162.621 314.515 160.34 319.789 164.46L317.749 167.063Z" fill="#FFF6F3"/>
</g>
<path d="M400.067 138.438L397.773 162.004C397.679 162.97 398.886 163.467 399.504 162.729L413.313 146.37C413.313 146.37 457.84 172.767 478.534 129.407C499.241 86.0601 464.765 59.3812 443.266 54.6171C421.781 49.853 387.802 49.2357 375.777 89.6701C363.753 130.118 400.067 138.438 400.067 138.438Z" fill="white"/>
<path d="M192.997 82.9601L202.418 97.7087C202.807 98.3126 203.733 98.0576 203.76 97.3464L204.323 81.5242C204.323 81.5242 242.262 76.5454 234.505 41.8815C226.748 7.23106 194.527 7.4592 179.845 14.4913C165.177 21.5368 145.141 36.688 156.615 65.6886C168.089 94.7026 192.997 82.9601 192.997 82.9601Z" fill="#C23D37"/>
<path d="M128.809 333.914C128.809 333.914 133.976 298.311 122.475 296.66C110.974 295.01 115.456 316.361 115.456 316.361C115.456 316.361 98.8958 300.887 95.0174 308.671C85.1134 328.506 128.809 333.914 128.809 333.914Z" fill="#396DC9"/>
<path d="M422.103 236.123C422.103 236.123 443.24 220.381 438.14 213.564C433.04 206.746 424.291 220.113 424.291 220.113C424.291 220.113 423.74 203.512 417.701 205.525C402.295 210.665 422.103 236.123 422.103 236.123Z" fill="#396DC9"/>
<path d="M438.798 245.449C438.798 245.449 451.614 210.209 452.311 210.692C453.009 211.175 465.436 215.214 464.886 217.912C464.336 220.622 446.85 249.1 446.85 249.1L438.798 245.449Z" fill="#D12035"/>
<path d="M435.644 250.858C434.584 251.448 433.953 252.629 433.725 253.824C433.51 255.018 433.644 256.253 433.778 257.46C433.953 259.004 434.248 260.748 435.563 261.58C438.717 263.58 443.884 259.594 444.219 256.293C444.635 252.455 438.905 249.046 435.644 250.858Z" fill="#D12035"/>
<path d="M165.164 345.281C170.8 345.912 175.645 350.139 178.221 355.077C178.946 356.46 179.429 357.963 179.523 359.519C179.845 365.612 174.571 368.216 170.183 370.873C167.217 372.671 164.171 375.368 163.634 378.589C163.433 379.797 162.252 380.629 161.084 380.253C159.568 379.757 158.226 378.71 157.447 377.328C156.239 375.194 156.414 372.349 157.89 370.376C160.708 366.592 167.056 366.605 168.935 361.895C170.129 358.902 168.626 355.413 165.66 354.151C161.836 352.541 158.158 355.48 157.246 359.023C152.898 357.654 147.409 355.936 151.891 351.266C155.233 347.75 160.131 344.717 165.164 345.281Z" fill="#31A4D3"/>
<path d="M154.844 385.407C153.555 388.896 158.36 393.163 161.057 389.889C162.6 387.997 162.091 384.387 159.849 383.259C157.944 382.307 155.555 383.474 154.844 385.407Z" fill="#31A4D3"/>
<path d="M409.461 103.426C409.461 106.982 406.576 109.867 403.02 109.867C399.464 109.867 396.578 106.982 396.578 103.426C396.578 99.8693 399.464 96.984 403.02 96.984C406.576 96.984 409.461 99.8693 409.461 103.426Z" fill="#396DC9"/>
<path d="M437.08 103.426C437.08 106.982 434.194 109.867 430.638 109.867C427.082 109.867 424.197 106.982 424.197 103.426C424.197 99.8693 427.082 96.984 430.638 96.984C434.194 96.984 437.08 99.8693 437.08 103.426Z" fill="#396DC9"/>
<path d="M464.685 103.426C464.685 106.982 461.799 109.867 458.243 109.867C454.687 109.867 451.802 106.982 451.802 103.426C451.802 99.8693 454.687 96.984 458.243 96.984C461.799 96.984 464.685 99.8693 464.685 103.426Z" fill="#396DC9"/>
<path d="M177.711 49.9201C177.711 52.3893 175.712 54.3889 173.243 54.3889C170.773 54.3889 168.774 52.3893 168.774 49.9201C168.774 47.4508 170.773 45.4512 173.243 45.4512C175.698 45.4512 177.711 47.4508 177.711 49.9201Z" fill="white"/>
<path d="M196.875 49.9201C196.875 52.3893 194.876 54.3889 192.406 54.3889C189.937 54.3889 187.937 52.3893 187.937 49.9201C187.937 47.4508 189.937 45.4512 192.406 45.4512C194.876 45.4512 196.875 47.4508 196.875 49.9201Z" fill="white"/>
<path d="M216.039 49.9201C216.039 52.3893 214.039 54.3889 211.57 54.3889C209.101 54.3889 207.101 52.3893 207.101 49.9201C207.101 47.4508 209.101 45.4512 211.57 45.4512C214.039 45.4512 216.039 47.4508 216.039 49.9201Z" fill="white"/>
<path d="M57.2267 101.654C44.2496 105.559 41.7535 108.807 38.5461 125.904C35.6608 108.753 33.2183 105.465 20.3217 101.319C32.5071 97.655 35.4461 94.5684 38.4119 80.0748C38.5729 79.3099 39.3915 79.3233 39.5257 80.0882C42.2232 94.6221 45.1219 97.7624 57.2267 101.654Z" fill="#1F3356"/>
<path d="M535.945 535.818C518.566 541.052 515.224 545.386 510.93 568.281C507.065 545.319 503.804 540.918 486.533 535.362C502.838 530.45 506.783 526.33 510.756 506.925C510.97 505.905 512.057 505.918 512.259 506.938C515.869 526.411 519.734 530.598 535.945 535.818Z" fill="#C23D37"/>
<path d="M586.082 270.719C574.098 274.329 571.79 277.322 568.837 293.104C566.18 277.268 563.926 274.235 552.009 270.411C563.255 267.029 565.979 264.184 568.703 250.804C568.851 250.106 569.602 250.106 569.737 250.817C572.233 264.237 574.903 267.123 586.082 270.719Z" fill="#C23D37"/>
<path d="M203.867 121.086C194.795 123.811 193.05 126.079 190.823 138.022C188.81 126.038 187.105 123.743 178.087 120.845C186.595 118.282 188.662 116.134 190.729 106.002C190.836 105.465 191.413 105.479 191.507 106.016C193.386 116.188 195.412 118.375 203.867 121.086Z" fill="white"/>
<path d="M552.666 374.657C545.634 376.778 544.279 378.536 542.548 387.795C540.977 378.509 539.662 376.724 532.67 374.483C539.273 372.497 540.87 370.833 542.467 362.982C542.548 362.566 542.99 362.579 543.071 362.982C544.534 370.846 546.104 372.55 552.666 374.657Z" fill="white"/>
<path d="M231.365 217.066C224.453 219.146 223.125 220.877 221.42 229.976C219.877 220.851 218.589 219.093 211.718 216.892C218.2 214.946 219.77 213.295 221.353 205.579C221.434 205.176 221.877 205.176 221.944 205.579C223.38 213.322 224.923 214.986 231.365 217.066Z" fill="white"/>
<path d="M177.685 487.667C164.399 491.666 161.849 494.981 158.575 512.481C155.622 494.927 153.126 491.559 139.921 487.318C152.388 483.561 155.407 480.407 158.44 465.578C158.601 464.799 159.433 464.799 159.581 465.591C162.332 480.487 165.298 483.695 177.685 487.667Z" fill="white"/>
<path d="M557.028 491.304C549.714 493.505 548.305 495.33 546.507 504.965C544.883 495.303 543.5 493.451 536.24 491.116C543.098 489.049 544.762 487.318 546.439 479.145C546.533 478.716 546.99 478.716 547.07 479.145C548.573 487.345 550.21 489.103 557.028 491.304Z" fill="#1F3356"/>
<path d="M25.1797 309.154C17.8658 311.355 16.4567 313.18 14.6585 322.816C13.0346 313.153 11.6658 311.301 4.39215 308.966C11.2498 306.9 12.9139 305.168 14.5914 296.996C14.6853 296.566 15.1416 296.566 15.2221 296.996C16.7251 305.195 18.349 306.953 25.1797 309.154Z" fill="#C23D37"/>
<path d="M286.561 24.8113C278.241 27.3208 276.644 29.3875 274.59 40.3516C272.738 29.3606 271.182 27.2537 262.915 24.5965C270.712 22.248 272.604 20.2753 274.51 10.9887C274.604 10.5055 275.141 10.5055 275.221 10.9887C276.939 20.3156 278.791 22.3286 286.561 24.8113Z" fill="#1F3356"/>
</svg>
