<svg width="937" height="864" viewBox="0 0 937 864" fill="none" xmlns="http://www.w3.org/2000/svg">
<path d="M758.968 659.906C760.987 661.798 757.679 665.752 755.445 664.162C753.211 662.571 755.918 658.187 758.367 659.476C766.658 669.836 775.551 679.679 784.96 689.007" stroke="#5A5D72" stroke-miterlimit="10"/>
<path d="M784.315 645.764C783.8 645.764 783.929 644.819 784.444 644.733C784.96 644.647 785.39 644.991 785.776 645.334C794.368 652.9 805.495 657.542 816.923 658.359" stroke="#5A5D72" stroke-miterlimit="10"/>
<path d="M801.715 616.019C813.658 622.681 825.816 629 838.146 634.932" stroke="#5A5D72" stroke-miterlimit="10"/>
<path d="M808.76 602.736C824.656 602.22 840.466 599.469 855.631 594.612" stroke="#5A5D72" stroke-miterlimit="10"/>
<path d="M814.947 563.018C825.386 568.52 836.814 572.045 848.543 573.335" stroke="#5A5D72" stroke-miterlimit="10"/>
<path d="M805.538 526.137C813.658 521.537 822.293 517.884 831.186 515.219" stroke="#5A5D72" stroke-miterlimit="10"/>
<path d="M784.315 485.559C783.714 484.011 785.604 482.765 787.108 482.163C797.375 478.208 807.643 474.211 817.911 470.256" stroke="#5A5D72" stroke-miterlimit="10"/>
<path d="M738.991 460.327C752.395 453.535 766.615 448.377 781.265 445.067" stroke="#5A5D72" stroke-miterlimit="10"/>
<path d="M72.3166 527.727C51.3085 531.768 30.3003 535.808 9.24927 539.849" stroke="#5A5D72" stroke-miterlimit="10"/>
<path d="M67.3759 556.097C47.6996 562.889 29.2692 573.248 13.2017 586.531" stroke="#5A5D72" stroke-miterlimit="10"/>
<path d="M78.5459 589.669C74.8942 596.89 67.2041 600.888 60.2873 605.1C48.0863 612.537 37.0023 621.822 27.6367 632.611" stroke="#5A5D72" stroke-miterlimit="10"/>
<path d="M105.655 631.02C92.4654 645.721 78.9327 660.078 65.0562 674.134" stroke="#5A5D72" stroke-miterlimit="10"/>
<path d="M126.276 675.51C128.897 681.442 126.061 688.276 122.882 693.95C116.567 705.298 108.834 715.916 99.9836 725.372" stroke="#5A5D72" stroke-miterlimit="10"/>
<path d="M179.033 715.228C177.572 730.23 171.128 744.716 160.903 755.763" stroke="#5A5D72" stroke-miterlimit="10"/>
<path d="M225.946 721.461C221.049 739.429 214.991 757.096 207.817 774.247" stroke="#5A5D72" stroke-miterlimit="10"/>
<path d="M295.673 719.398C299.024 720.644 298.379 725.588 297.091 728.94C292.923 739.859 288.756 750.82 284.589 761.738" stroke="#5A5D72" stroke-miterlimit="10"/>
<path d="M340.009 711.359C342.071 712.993 342.544 716.088 341.899 718.667C341.255 721.246 339.665 723.481 338.291 725.759C333.694 733.368 330.858 742.051 330.085 750.906" stroke="#5A5D72" stroke-miterlimit="10"/>
<path d="M390.703 698.464C394.484 697.905 397.878 701.387 398.694 705.127C399.51 708.866 398.393 712.692 397.276 716.346C394.742 724.728 392.25 733.11 389.715 741.449" stroke="#5A5D72" stroke-miterlimit="10"/>
<path d="M450.849 682.43C453.899 684.838 454.845 689.179 454.286 693.048C453.728 696.916 452.052 700.484 450.591 704.095C447.369 712.176 445.436 720.73 444.963 729.413" stroke="#5A5D72" stroke-miterlimit="10"/>
<path d="M488.526 674.392L493.166 677.143C487.882 690.082 486.121 704.482 488.14 718.323" stroke="#5A5D72" stroke-miterlimit="10"/>
<path d="M551.636 674.134C555.073 686.084 555.718 698.851 553.484 711.058" stroke="#5A5D72" stroke-miterlimit="10"/>
<path d="M619.215 666.268C615.133 677.616 614.016 690.039 615.993 701.946" stroke="#5A5D72" stroke-miterlimit="10"/>
<path d="M652.725 668.073C655.345 668.804 657.107 671.426 657.751 674.091C658.396 676.757 658.052 679.551 657.923 682.259C657.322 694.38 660.028 706.631 665.699 717.334" stroke="#5A5D72" stroke-miterlimit="10"/>
<path d="M706.04 671.942C717.51 680.582 728.981 689.222 740.409 697.819" stroke="#5A5D72" stroke-miterlimit="10"/>
<path d="M581.796 415.364C421.249 400.148 256.879 427.228 109.693 493.081C82.9281 505.074 54.058 521.322 46.0242 549.564C37.0882 580.943 57.6669 612.451 77.4291 638.457C103.807 673.189 132.162 708.866 171.772 727.006C213.445 746.091 261.991 742.996 306.585 732.551C351.179 722.106 394.054 704.74 439.035 696.014C526.461 679.035 617.539 695.369 705.31 680.41C730.528 676.112 755.703 669.062 777.227 655.221C798.75 641.38 816.365 620.102 821.52 595.042C827.019 568.348 818.126 541.01 809.018 515.348C805.195 504.601 801.156 493.554 793.337 485.258C772.716 463.465 727.907 448.463 699.939 438.748C661.876 425.552 621.75 419.147 581.796 415.364Z" fill="#7C7F8E"/>
<path d="M677.127 503.785C657.064 500.518 636.743 505.375 616.465 507.094C562.463 511.694 508.546 494.113 454.415 497.423C407.974 500.26 363.981 518.228 318.872 529.619C287.94 537.399 256.191 542.084 224.314 543.589C205.067 544.491 182.212 546.211 172.46 562.846C163.266 578.622 171.729 598.996 183.5 612.967C205.797 639.359 240.167 655.178 274.708 654.877C334.939 654.361 387.137 608.625 447.24 604.928C475.681 603.166 503.735 610.989 531.531 617.351C572 626.636 614.188 633.041 654.873 624.702C686.32 618.254 721.377 599.34 734.222 568.133C747.068 536.926 702.646 507.954 677.041 503.785H677.127Z" fill="white" stroke="black" stroke-width="0.5" stroke-miterlimit="10"/>
<path d="M668.234 541.483C642.629 527.169 611.611 526.524 582.44 529.662C553.269 532.8 524.313 539.505 494.971 538.474C469.752 537.571 444.921 531.037 419.702 531.424C371.715 532.155 327.55 557.731 280.035 564.351C264.569 566.5 248.587 566.715 234.109 572.604C231.059 573.85 227.794 575.742 227.149 578.966C226.72 581.158 227.622 583.35 228.696 585.327C239.78 605.53 265.944 611.892 288.971 611.505C349.933 610.474 406.814 577.547 467.733 575.656C529.812 573.721 591.161 604.284 652.295 593.323C665.313 591.001 679.919 585.585 688.168 574.624C699.596 559.45 680.993 548.575 668.234 541.483Z" fill="white" stroke="black" stroke-width="0.5" stroke-miterlimit="10"/>
<path d="M168.593 474.985C174.092 489.599 177.701 504.902 179.419 520.42C152.912 519.818 126.534 514.574 101.831 504.945C109.779 518.271 117.77 531.596 125.718 544.921C99.4684 547.801 73.9063 556.441 51.2656 570.025C63.5526 574.495 75.5819 579.739 87.2244 585.714C89.4584 586.875 91.8641 588.207 92.7663 590.571C93.7544 593.151 92.6375 595.988 91.5205 598.524C86.537 609.829 81.5534 621.134 76.5269 632.482C96.5899 623.154 123.355 642.282 121.035 664.334C120.262 671.641 117.598 680.711 123.527 685.053C132.763 691.801 142.043 675.381 153.084 672.544C163.137 669.965 172.417 679.937 174.994 689.996C177.572 700.054 176.068 710.844 178.603 720.902C179.205 723.352 180.107 725.845 181.868 727.651C188.613 734.571 199.783 727.178 206.872 720.601C217.054 711.145 228.438 702.977 240.725 696.444C243.647 694.853 246.826 693.349 250.177 693.607C257.91 694.122 261.819 703.321 262.421 711.102C263.022 718.882 262.378 727.522 267.447 733.411C272.732 739.515 282.527 739.859 289.787 736.377C297.048 732.895 302.461 726.49 307.616 720.257C317.325 708.522 326.992 696.788 336.701 685.096C345.207 690.125 350.706 698.937 358.139 705.428C365.571 711.918 377.428 715.83 385.033 709.511C388.469 706.674 390.231 702.376 391.906 698.249C396.331 687.202 400.799 676.155 405.224 665.108C411.969 673.533 419.488 681.356 427.693 688.362C431.302 691.457 435.34 694.552 440.066 694.767C449.689 695.283 455.575 684.494 458.325 675.252C461.074 666.01 464.64 654.963 473.963 652.599C478.602 663.259 483.586 674.392 492.823 681.442C502.059 688.491 516.924 689.566 524.313 680.582C530.113 673.49 531.316 661.153 540.295 659.391C556.062 656.296 560.959 691.199 575.996 685.611C586.35 681.743 586.35 660.809 597.176 662.915C600.011 663.474 602.202 665.752 603.878 668.074C611.095 677.874 617.625 692.532 629.655 690.856C644.519 688.835 647.355 663.001 662.348 662.571C674.85 662.228 681.122 680.711 693.624 681.442C708.961 682.345 711.496 659.133 722.924 648.902C738.991 656.038 757.508 657.585 774.563 653.158C776.84 652.556 779.246 651.782 780.75 649.977C784.187 645.85 781.008 639.488 776.926 636.05C772.845 632.611 767.561 629.86 765.713 624.831C779.117 627.281 792.951 627.195 806.312 624.573C812.627 623.326 820.231 619.715 819.759 613.268C819.544 610.216 782.125 515.519 780.019 513.327C771.642 504.472 797.333 588.938 786.764 582.834C798.192 577.676 810.909 570.068 812.155 557.602C813.443 544.577 797.548 533.358 785.69 538.946C794.97 523.773 804.464 504.816 796.044 489.17C786.764 493.812 777.528 498.454 768.248 503.14C767.002 497.38 768.978 491.448 769.451 485.559C769.924 479.67 768.076 472.663 762.534 470.686C753.684 467.548 745.994 479.627 736.628 479.326C719.401 478.681 721.721 441.929 704.579 443.648C692.378 444.852 687.008 467.118 675.537 462.691C671.628 461.186 669.609 456.931 668.019 453.105C664.711 445.239 661.36 437.33 658.052 429.463C643.316 441.671 627.163 452.117 610.064 460.628C611.009 447.99 608.217 435.051 602.159 423.918C594.083 433.203 586.006 442.488 577.886 451.773C574.32 455.856 569.509 460.327 564.31 458.822C561.131 457.919 559.026 454.954 557.136 452.159C549.703 441.069 542.314 430.022 534.882 418.932C530.543 429.893 526.204 440.897 521.865 451.859C520.49 455.297 518.9 458.994 515.635 460.671C510.136 463.551 503.778 459.209 499.095 455.125C484.316 442.187 469.495 429.291 454.716 416.353C447.842 428.26 440.968 440.21 434.094 452.116C426.662 436.556 417.125 421.941 405.826 408.917C399.425 427.959 393.023 446.958 386.622 466.001C372.66 456.028 361.962 441.456 356.678 425.122C353.37 438.877 350.019 452.589 346.711 466.345C346.067 469.096 345.121 472.191 342.544 473.394C339.15 474.985 335.369 472.19 332.706 469.525C322.094 458.994 312.6 447.388 304.308 434.965C300.055 454.309 293.396 473.136 284.503 490.803C270.97 477.779 257.394 464.754 243.862 451.773C242.659 463.465 242.014 475.414 240.253 487.02C238.277 499.873 235.183 502.151 224.959 494.457C208.547 482.077 189.472 474.469 168.636 475.113L168.593 474.985Z" fill="#5A5D72"/>
<path d="M264.612 483.925C268.392 494.887 270.884 506.364 272.087 518.013C253.786 517.583 235.613 513.628 218.557 506.407L235.054 536.41C216.968 538.559 199.311 545.05 183.716 555.238C192.222 558.59 200.513 562.545 208.504 567.016C210.051 567.875 211.683 568.907 212.328 570.669C213.015 572.604 212.242 574.753 211.469 576.644C208.032 585.155 204.595 593.623 201.158 602.134C214.991 595.128 233.465 609.485 231.832 626.034C231.274 631.493 229.469 638.328 233.551 641.552C239.909 646.624 246.31 634.287 253.957 632.181C260.917 630.247 267.318 637.726 269.08 645.291C270.841 652.857 269.81 660.938 271.572 668.503C272.001 670.352 272.603 672.2 273.849 673.576C278.488 678.777 286.221 673.232 291.076 668.288C298.079 661.196 305.941 655.092 314.404 650.149C316.423 648.988 318.614 647.827 320.934 647.999C326.261 648.386 328.968 655.307 329.355 661.11C329.741 666.913 329.355 673.447 332.834 677.831C336.486 682.43 343.231 682.645 348.258 680.023C353.284 677.401 357.022 672.587 360.545 667.902C367.247 659.09 373.906 650.321 380.607 641.509C386.493 645.291 390.274 651.868 395.386 656.768C400.499 661.669 408.704 664.592 413.946 659.82C416.308 657.671 417.554 654.447 418.671 651.352C421.722 643.056 424.815 634.76 427.865 626.464C432.505 632.783 437.703 638.629 443.374 643.916C445.866 646.237 448.658 648.558 451.923 648.73C458.582 649.117 462.621 641.036 464.511 634.072C466.401 627.109 468.85 618.856 475.294 617.05C478.474 625.045 481.91 633.385 488.312 638.672C494.713 643.959 504.938 644.776 510.05 638.027C514.046 632.697 514.862 623.412 521.091 622.122C531.96 619.801 535.354 646.022 545.708 641.81C552.84 638.93 552.84 623.197 560.315 624.788C562.291 625.217 563.752 626.937 564.955 628.656C569.938 636.007 574.449 647.011 582.741 645.764C593.009 644.26 594.942 624.83 605.296 624.53C613.931 624.272 618.227 638.156 626.862 638.672C637.431 639.359 639.192 621.95 647.097 614.256C658.181 619.629 670.94 620.747 682.712 617.48C684.301 617.05 685.934 616.448 686.965 615.116C689.328 612.021 687.137 607.25 684.301 604.67C681.466 602.091 677.814 600.028 676.568 596.245C685.805 598.094 695.343 598.008 704.579 596.03C708.918 595.085 714.203 592.377 713.859 587.562C713.687 585.284 687.867 514.23 686.45 512.553C680.693 505.891 698.393 569.294 691.132 564.694C698.994 560.826 707.758 555.109 708.618 545.738C709.52 535.98 698.522 527.555 690.359 531.725C696.76 520.334 703.333 506.106 697.491 494.371C691.089 497.853 684.688 501.334 678.33 504.859C677.471 500.518 678.802 496.09 679.146 491.663C679.49 487.235 678.201 481.991 674.377 480.487C668.277 478.122 662.95 487.192 656.505 486.934C644.605 486.462 646.238 458.865 634.38 460.155C625.96 461.057 622.265 477.779 614.36 474.469C611.654 473.351 610.279 470.17 609.162 467.247C606.885 461.315 604.565 455.426 602.288 449.494C592.149 458.65 580.979 466.516 569.165 472.878C569.809 463.379 567.876 453.707 563.709 445.325C558.124 452.288 552.539 459.252 546.997 466.216C544.548 469.268 541.24 472.62 537.631 471.503C535.44 470.815 533.98 468.58 532.691 466.516C527.578 458.22 522.466 449.881 517.354 441.585C514.346 449.838 511.339 458.048 508.375 466.301C507.43 468.881 506.356 471.632 504.079 472.921C500.298 475.07 495.916 471.847 492.694 468.752C482.469 459.037 472.287 449.365 462.062 439.651C457.337 448.592 452.568 457.533 447.842 466.516C442.687 454.824 436.114 443.863 428.338 434.106C423.913 448.377 419.488 462.648 415.105 476.962C405.482 469.482 398.093 458.564 394.441 446.27C392.164 456.587 389.844 466.903 387.567 477.22C387.095 479.283 386.45 481.604 384.689 482.507C382.326 483.71 379.748 481.604 377.901 479.627C370.597 471.718 364.024 463.035 358.311 453.707C355.389 468.236 350.792 482.335 344.649 495.617C335.283 485.86 325.961 476.102 316.595 466.301C315.779 475.07 315.306 484.054 314.103 492.78C312.772 502.409 310.58 504.128 303.535 498.368C292.193 489.084 279.047 483.367 264.698 483.839L264.612 483.925Z" fill="#7C7F8E"/>
<path d="M327.206 504.773C329.698 511.049 331.374 517.626 332.147 524.289C320.075 524.031 308.046 521.752 296.79 517.626L307.659 534.82C295.716 536.066 284.073 539.763 273.762 545.609C279.347 547.543 284.846 549.779 290.131 552.358C291.162 552.831 292.236 553.432 292.665 554.421C293.138 555.539 292.623 556.742 292.107 557.86C289.83 562.717 287.553 567.575 285.276 572.432C294.427 568.434 306.628 576.644 305.554 586.101C305.21 589.239 304.007 593.151 306.714 594.999C310.924 597.879 315.134 590.829 320.204 589.626C324.801 588.508 329.011 592.807 330.171 597.105C331.331 601.404 330.643 606.046 331.803 610.388C332.104 611.462 332.491 612.494 333.307 613.311C336.357 616.277 341.47 613.096 344.692 610.259C349.332 606.175 354.53 602.693 360.115 599.899C361.447 599.212 362.907 598.567 364.411 598.653C367.934 598.868 369.695 602.822 369.996 606.175C370.297 609.528 369.996 613.225 372.273 615.761C374.679 618.383 379.147 618.512 382.455 617.007C385.763 615.503 388.212 612.752 390.574 610.087C394.999 605.057 399.382 599.985 403.807 594.956C407.673 597.105 410.165 600.888 413.559 603.682C416.953 606.476 422.323 608.152 425.803 605.444C427.349 604.241 428.166 602.392 428.939 600.587C430.958 595.816 432.977 591.087 434.996 586.316C438.09 589.927 441.484 593.28 445.221 596.332C446.854 597.664 448.701 598.997 450.849 599.083C455.231 599.297 457.895 594.655 459.184 590.7C460.473 586.746 462.062 581.974 466.315 580.943C468.42 585.542 470.697 590.314 474.908 593.323C479.118 596.332 485.906 596.804 489.257 592.936C491.92 589.884 492.436 584.597 496.517 583.823C503.692 582.49 505.926 597.492 512.8 595.085C517.525 593.409 517.525 584.425 522.466 585.327C523.755 585.585 524.743 586.531 525.516 587.563C528.781 591.775 531.789 598.051 537.245 597.363C544.033 596.503 545.321 585.37 552.152 585.198C557.866 585.069 560.702 592.979 566.372 593.323C573.332 593.709 574.492 583.737 579.733 579.352C587.08 582.404 595.5 583.092 603.233 581.201C604.264 580.943 605.381 580.599 606.069 579.825C607.658 578.063 606.198 575.312 604.307 573.85C602.417 572.389 600.054 571.185 599.195 569.036C605.295 570.068 611.611 570.068 617.668 568.907C620.547 568.391 624.027 566.801 623.812 564.05C623.726 562.76 606.67 522.053 605.725 521.065C601.902 517.239 613.587 553.561 608.818 550.939C614.016 548.704 619.816 545.437 620.375 540.107C620.976 534.519 613.716 529.662 608.346 532.069C612.556 525.535 616.895 517.411 613.071 510.662C608.861 512.683 604.651 514.66 600.398 516.68C599.839 514.187 600.741 511.651 600.956 509.115C601.171 506.579 600.312 503.57 597.777 502.71C593.739 501.334 590.259 506.579 585.963 506.407C578.101 506.149 579.175 490.33 571.356 491.061C565.771 491.577 563.365 501.163 558.124 499.228C556.362 498.583 555.417 496.778 554.687 495.102C553.183 491.706 551.68 488.31 550.133 484.914C543.431 490.158 536.085 494.672 528.266 498.326C528.695 492.866 527.406 487.321 524.657 482.55C520.962 486.548 517.311 490.545 513.616 494.543C511.983 496.305 509.792 498.24 507.429 497.595C505.969 497.208 505.024 495.918 504.164 494.758C500.77 489.986 497.419 485.215 494.025 480.487C492.049 485.215 490.073 489.943 488.097 494.629C487.495 496.09 486.765 497.681 485.261 498.412C482.77 499.658 479.848 497.767 477.743 496.047C470.998 490.502 464.253 484.914 457.508 479.369C454.372 484.484 451.236 489.643 448.1 494.758C444.706 488.052 440.367 481.776 435.211 476.188C432.29 484.355 429.369 492.566 426.447 500.733C420.089 496.434 415.234 490.201 412.828 483.152C411.325 489.041 409.821 494.973 408.275 500.862C407.974 502.065 407.544 503.398 406.384 503.914C404.838 504.601 403.119 503.398 401.916 502.28C397.105 497.767 392.765 492.78 388.985 487.407C387.052 495.703 384.001 503.828 379.963 511.393C373.777 505.805 367.633 500.217 361.447 494.629C360.888 499.658 360.587 504.773 359.814 509.803C358.912 515.348 357.494 516.293 352.854 512.983C345.379 507.653 336.701 504.386 327.206 504.644V504.773Z" fill="#5A5D72"/>
<path d="M388.212 110.128C374.421 131.749 366.516 156.509 358.525 180.881C350.535 205.254 342.243 229.927 327.808 251.119C319.817 262.811 310.022 273.428 304.351 286.41C299.496 297.543 297.95 309.836 296.489 321.872C305.769 320.368 313.416 330.254 322.825 330.684C326.777 330.856 330.558 329.309 334.381 328.363C343.704 326.042 353.886 327.288 362.349 331.802C365.141 333.263 367.934 335.112 371.07 334.94C374.077 334.768 376.612 332.662 378.674 330.469C386.279 322.302 389.973 311.341 392.895 300.595C402.432 265.648 406.17 228.724 421.765 196.012C436.758 164.59 462.449 137.724 469.452 103.594C471.299 94.7391 471.686 85.1105 467.561 77.0293C449.002 40.406 399.554 92.246 388.126 110.128H388.212Z" fill="#33202C"/>
<path d="M319.388 227.821C317.583 227.907 315.736 228.165 314.275 229.282C313.115 230.185 312.385 231.517 311.784 232.85C307.487 242.393 307.101 253.311 308.476 263.67C309.85 274.03 312.986 284.088 315.392 294.276C322.481 324.279 323.555 355.357 324.629 386.221C325.531 412.141 326.347 438.663 318.743 463.465C315.306 474.727 310.151 485.43 303.535 495.145C310.838 496.821 318.185 498.498 325.488 500.131C327.293 500.561 329.226 500.948 330.944 500.26C332.663 499.615 333.823 498.025 334.811 496.52C351.738 471.46 357.666 440.812 363.079 411.066C366.302 393.184 369.481 375.174 368.879 356.991C368.192 336.401 362.65 316.327 357.666 296.339C353.628 280.177 349.933 263.885 346.625 247.551C345.508 242.092 345.766 235.085 340.654 231.861C334.854 228.208 326.004 227.305 319.345 227.692L319.388 227.821Z" fill="#ED6B6B"/>
<path d="M309.249 267.754C327.636 271.537 344.692 286.324 358.483 299.52C358.225 298.488 357.967 297.457 357.709 296.425C353.671 280.263 349.976 263.971 346.668 247.637C345.551 242.178 345.809 235.171 340.697 231.948C334.897 228.294 326.047 227.391 319.388 227.778C317.583 227.864 315.736 228.122 314.275 229.239C313.115 230.142 312.385 231.475 311.784 232.807C307.487 242.35 307.101 253.268 308.476 263.628C308.647 265.003 308.948 266.336 309.163 267.711L309.249 267.754Z" fill="#D15656"/>
<path d="M305.898 206.887C301.817 216.473 298.423 227.09 296.232 238.309C295.759 240.673 295.372 243.252 296.532 245.402C297.477 247.207 299.282 248.325 301 249.356C318.786 260.189 336.572 271.021 354.358 281.853C359.643 255.073 362.736 232.119 350.449 207.704C337.99 182.901 315.822 183.632 305.898 206.844V206.887Z" fill="#336F84"/>
<path d="M460.43 141.077C461.418 142.238 461.418 143.957 461.375 145.505C461.031 157.111 459.957 168.717 458.196 180.237C457.122 187.114 455.833 194.035 455.962 200.998C456.091 207.962 457.852 215.14 462.234 220.514C450.377 226.66 437.145 230.744 423.784 230.357C410.423 229.97 396.89 224.898 387.825 215.054C397.019 207.919 403.85 197.989 408.704 187.372C413.559 176.755 416.566 165.407 419.187 154.059C421.163 145.548 424.428 137.122 434.438 137.294C440.796 137.38 456.005 135.833 460.387 141.077H460.43Z" fill="#ED6B6B"/>
<path d="M415.922 218.622C385.935 214.582 360.974 189.349 330.73 189.177C325.445 189.177 319.345 190.424 316.853 195.109C315.65 197.388 315.564 200.053 315.564 202.632C315.736 240.674 334.338 275.749 349.246 310.739C358.053 331.372 365.7 352.521 372.144 374.013C374.894 383.212 377.472 392.54 378.631 402.083C379.448 408.702 379.62 415.451 381.682 421.813C383.744 428.174 388.169 434.192 394.613 435.998C400.456 437.631 406.728 435.482 411.755 432.086C416.781 428.69 420.905 424.177 425.631 420.351C448.744 401.524 481.911 401.481 508.203 387.425C515.635 383.47 522.552 378.355 530.629 375.991C535.612 374.529 541.154 374.099 545.193 370.832C552.539 364.9 550.993 353.509 548.759 344.354C548.759 336.788 544.634 327.374 542.83 319.981C540.682 311.126 538.534 302.314 536.386 293.459C532.218 276.265 528.008 259.071 523.841 241.834C521.607 232.592 521.005 212.647 511.081 207.962C499.181 202.374 479.462 208.822 467.519 211.745C450.721 215.828 433.493 220.943 416.008 218.579L415.922 218.622Z" fill="#336F84"/>
<path d="M428.338 405.736C429.025 405.865 427.779 406.51 427.307 405.994C409.821 388.628 394.269 369.285 381.08 348.437C395.644 361.762 410.208 375.088 424.815 388.456" stroke="#468B9E" stroke-width="0.25" stroke-miterlimit="10"/>
<path d="M450.291 388.757C447.627 383.341 445.694 377.538 444.577 371.563C449.604 376.807 453.943 382.696 457.509 389.015" stroke="#468B9E" stroke-width="0.25" stroke-miterlimit="10"/>
<path d="M410.896 426.283C406.814 423.79 403.248 420.437 400.456 416.568C406.17 417.256 411.798 418.546 417.254 420.351" stroke="#468B9E" stroke-width="0.25" stroke-miterlimit="10"/>
<path d="M427.65 303.174L429.713 307.3C419.703 299.563 409.693 291.826 400.284 283.401C395.945 279.489 391.563 275.234 389.673 269.688C393.067 269.388 396.117 271.623 398.78 273.772C412.485 284.647 426.233 295.523 439.937 306.355" stroke="#468B9E" stroke-width="0.25" stroke-miterlimit="10"/>
<path d="M564.611 356.346C567.318 363.138 574.578 366.706 580.378 371.176C586.994 376.249 592.149 382.954 596.574 390.047C609.033 409.949 616.251 433.591 614.575 457.018C612.9 480.444 601.816 503.57 583.042 517.712C558.253 536.454 524.657 537.486 493.639 536.239C478.731 535.637 463.48 534.649 449.647 529.018C431.818 521.796 417.855 507.697 404.451 493.942C402.99 492.48 401.53 490.933 400.714 489.041C394.914 475.716 406.127 458.264 411.454 446.701C413.645 441.973 414.977 437.803 414.59 432.559C413.86 422.973 409.349 420.394 419.187 414.892C448.186 398.687 478.56 384.072 509.664 372.466C527.578 365.803 545.923 360.215 564.654 356.346H564.611Z" fill="#FB9646"/>
<path d="M480.149 532.155C480.45 520.592 481.825 509.244 483.328 497.81C482.168 493.297 480.235 488.826 477.4 484.485C468.206 470.429 462.234 465.7 445.995 464.454C433.45 463.465 418.671 462.52 405.826 458.049C401.014 468.108 396.546 479.628 400.671 489.041C401.487 490.933 402.991 492.48 404.408 493.942C417.855 507.697 431.818 521.796 449.604 529.017C459.356 532.972 469.796 534.606 480.321 535.465C480.149 534.434 480.063 533.359 480.106 532.155H480.149Z" fill="#DD7731"/>
<path d="M483.677 146.262C494.832 114.427 486.722 82.603 465.562 75.1808C444.403 67.7585 418.208 87.5488 407.053 119.384C395.898 151.218 404.008 183.043 425.168 190.465C446.327 197.887 472.523 178.097 483.677 146.262Z" fill="#ED6B6B"/>
<path d="M464.855 115.071C464.597 116.189 465.499 117.22 466.444 117.908C468.636 119.584 471.213 120.745 473.533 122.25C477.185 124.657 480.149 128.01 482.082 131.921" stroke="#33202C" stroke-miterlimit="10"/>
<path d="M468.507 138.018C469.396 136.076 469.208 134.084 468.086 133.57C466.965 133.056 465.334 134.213 464.445 136.156C463.555 138.098 463.743 140.09 464.865 140.604C465.987 141.118 467.617 139.96 468.507 138.018Z" fill="#49303F"/>
<path d="M453.126 88.85C432.29 99.1664 418.586 120.315 411.239 142.366C403.893 164.418 401.96 187.845 398.437 210.842C393.926 240.415 386.751 270.075 389.329 299.864C390.704 316.112 394.914 332.747 390.36 348.351C374.206 346.76 358.311 342.849 343.274 336.788C355.905 310.954 341.899 276.953 357.494 252.795C342.028 272.783 347.313 302.228 335.885 324.752L320.032 311.771C328.41 303.432 331.804 291.353 333.393 279.661C334.983 267.969 335.112 255.976 338.291 244.628C343.661 225.586 357.194 209.982 365.142 191.885C374.335 170.995 375.839 147.396 384.603 126.333C391.047 110.858 401.315 97.1462 413.301 85.3682C424.471 74.3641 438.176 64.5635 453.771 63.7038C458.497 63.4459 463.824 64.3055 466.659 68.1312C472.158 75.5247 458.626 86.099 453.126 88.85Z" fill="#49303F"/>
<path d="M403.592 173.617C396.16 221.803 389.243 270.978 396.847 319.164" stroke="#33202C" stroke-width="0.5" stroke-miterlimit="10"/>
<path d="M408.06 152.21C401.616 174.82 400.757 198.591 399.94 222.061C399.167 244.671 398.394 267.367 400.628 289.848" stroke="#33202C" stroke-width="0.5" stroke-miterlimit="10"/>
<path d="M347.914 343.279C355.389 343.365 362.693 345.471 369.91 347.534C377.772 349.813 385.591 352.048 393.453 354.326C394.312 351.016 395.515 347.835 397.062 344.783" stroke="#33202C" stroke-width="0.5" stroke-miterlimit="10"/>
<path d="M465.414 84.1218C466.96 87.1308 469.409 89.581 471.385 92.375C478.86 102.949 478.731 117.134 476.068 129.772C473.404 142.41 468.421 154.66 467.175 167.513C465.929 180.451 468.378 194.164 463.222 206.113C459.743 214.109 453.255 220.342 447.971 227.262C440.926 236.504 435.813 247.594 435.512 259.2C435.255 270.591 439.551 281.552 441.914 292.685C444.277 303.819 444.233 316.671 436.715 325.225C433.665 328.707 429.154 332.146 429.755 336.745C430.228 340.184 433.407 342.505 434.997 345.6C437.789 351.102 433.88 358.839 427.779 359.828C436.844 361.762 445.565 365.115 453.599 369.715C465.8 363.353 472.76 348.265 469.624 334.811C470.87 341.302 472.158 347.835 471.686 354.412C471.213 360.989 468.85 367.694 463.867 372.036C472.373 371.219 480.879 370.188 489.343 368.898C488.956 350.328 488.57 331.759 488.183 313.189C488.097 309.708 488.054 306.183 488.913 302.787C489.816 299.348 491.663 296.253 493.038 293.029C496.045 286.109 497.119 278.457 497.248 270.935C497.549 255.245 494.069 239.728 493.081 224.038C491.577 199.924 496.088 175.938 498.021 151.866C499.954 127.795 499.095 102.519 487.882 81.1559C485.519 76.6424 482.426 72.129 477.786 70.0227C468.163 65.5953 460.817 75.181 465.37 83.9929L465.414 84.1218Z" fill="#49303F"/>
<path d="M497.892 145.461C494.069 177.786 491.448 210.627 499.954 242.006C502.446 251.248 506.012 260.361 506.527 269.946C507.472 288.559 496.732 306.097 496.775 324.752C496.775 333.779 499.353 342.548 502.231 351.102" stroke="#49303F" stroke-width="0.5" stroke-miterlimit="10"/>
<path d="M498.064 130.933C495.486 163.386 494.584 196.227 502.489 227.778C506.012 241.705 511.511 255.159 514.346 269.259C517.998 287.441 517.053 306.226 516.108 324.752" stroke="#49303F" stroke-width="0.5" stroke-miterlimit="10"/>
<path d="M456.306 215.183C450.978 226.703 441.785 236.117 436.715 247.766C432.118 258.34 431.173 270.462 434.138 281.595C435.813 287.957 438.777 294.319 437.832 300.853C436.071 313.533 423.182 320.196 419.316 330.125" stroke="#33202C" stroke-width="0.5" stroke-miterlimit="10"/>
<path d="M477.357 215.097C480.407 227.348 477.056 241.017 468.635 250.474C465.714 253.784 462.148 256.621 460.086 260.49C457.294 265.691 457.594 272.096 459.227 277.77C460.859 283.444 463.652 288.731 465.843 294.19C469.581 303.647 471.428 313.92 471.213 324.108" stroke="#33202C" stroke-width="0.5" stroke-miterlimit="10"/>
<path d="M468.936 264.659C466.659 271.15 466.144 278.285 467.475 285.034C468.764 291.611 471.686 297.758 473.619 304.162C476.841 314.952 477.271 326.558 474.779 337.519" stroke="#33202C" stroke-width="0.5" stroke-miterlimit="10"/>
<path d="M385.548 189.521C387.224 198.032 387.181 206.844 385.548 215.355C381.768 235.214 369.609 252.881 366.946 272.955C364.712 289.548 369.223 306.226 373.691 322.388" stroke="#33202C" stroke-width="0.5" stroke-miterlimit="10"/>
<path d="M378.073 254.558C373.82 269.645 373.132 285.722 376.097 301.11C377.558 308.805 379.92 316.327 380.479 324.15C381.037 331.974 379.448 340.356 374.078 346.03" stroke="#33202C" stroke-width="0.5" stroke-miterlimit="10"/>
<path d="M607.916 383.083C606.327 365.373 598.207 348.996 589.443 333.521C576.683 311.04 562.291 289.547 547.899 268.098C544.291 262.725 540.682 257.309 536.386 252.408C534.367 250.087 532.047 247.809 529.082 247.035C523.841 245.617 518.986 249.227 515.292 253.612L514.475 250.689C509.921 255.675 505.239 260.876 503.263 267.324C501.974 271.709 502.017 276.351 502.489 280.864C503.993 294.491 509.363 307.343 515.549 319.551C526.118 340.442 539.178 360.043 554.344 377.839C560.96 385.576 568.048 393.055 576.769 398.3C581.409 401.051 586.565 403.2 591.935 403.243C597.305 403.286 602.933 400.879 605.725 396.279C608.088 392.411 608.174 387.596 607.787 383.083H607.916Z" fill="#ED6B6B"/>
<path d="M514.046 316.413C528.696 304.119 550.09 297.027 568.564 299.348C561.819 288.86 554.859 278.5 547.899 268.098C544.291 262.725 540.682 257.309 536.386 252.408C534.367 250.087 532.047 247.809 529.082 247.035C523.841 245.617 518.986 249.227 515.292 253.612L514.475 250.689C509.921 255.675 505.239 260.876 503.263 267.324C501.974 271.709 502.017 276.351 502.489 280.864C503.864 293.287 508.461 305.108 513.96 316.37L514.046 316.413Z" fill="#D15656"/>
<path d="M515.893 205.942C524.357 208.564 529.942 216.473 534.667 223.952C545.622 241.361 555.546 259.372 564.397 277.899C547.942 286.152 530.113 291.697 511.898 294.147C510.394 294.362 508.805 294.534 507.387 293.932C505.625 293.201 504.508 291.482 503.52 289.805C496.346 277.469 491.835 263.584 490.073 249.442C489.171 242.264 488.999 235.042 489.558 227.864C489.945 222.62 489.944 211.616 493.252 207.274C496.561 202.933 510.91 204.394 515.893 205.942Z" fill="#336F84"/>
<path d="M456.821 112.062H416.824C412.791 112.062 409.521 115.334 409.521 119.369V213.507C409.521 217.543 412.791 220.814 416.824 220.814H456.821C460.855 220.814 464.125 217.543 464.125 213.507V119.369C464.125 115.334 460.855 112.062 456.821 112.062Z" fill="#F0E9E9"/>
<path d="M454.587 115.544H448.1C446.154 115.544 444.577 117.112 444.577 119.047C444.577 120.982 446.154 122.55 448.1 122.55H454.587C456.533 122.55 458.11 120.982 458.11 119.047C458.11 117.112 456.533 115.544 454.587 115.544Z" fill="#3E2743"/>
<path d="M436.543 148.384C440.008 148.384 442.816 145.575 442.816 142.109C442.816 138.643 440.008 135.833 436.543 135.833C433.079 135.833 430.271 138.643 430.271 142.109C430.271 145.575 433.079 148.384 436.543 148.384Z" fill="#3E2743"/>
<path d="M474.865 165.106C473.147 153.285 471.987 140.647 465.714 130.76C464.812 129.342 462.492 129.901 462.363 131.62C461.16 148.04 462.106 164.633 465.07 180.881C457.638 181.655 451.537 175.465 444.921 171.94C436.844 167.599 426.748 167.169 418.328 170.78C416.996 172.628 418.242 175.422 420.218 176.583C422.194 177.743 424.557 177.829 426.834 178.087C438.906 179.463 450.033 187.329 455.361 198.29C444.448 192.874 431.99 190.51 419.832 191.67C417.598 191.885 415.063 192.401 413.946 194.378C412.743 196.528 414.118 199.365 416.18 200.697C418.242 202.03 420.777 202.331 423.226 202.717C433.364 204.351 443.074 208.434 451.322 214.538C440.969 215.57 430.658 216.602 420.304 217.633C418.629 217.805 416.438 218.622 416.695 220.255C416.867 221.158 417.726 221.717 418.543 222.104C426.748 226.144 436.629 225.285 445.05 228.852C450.076 230.959 454.287 234.526 458.067 238.567C468.249 249.485 476.541 262.08 483.286 275.448L513.058 334.596C525.345 359.011 537.889 383.814 561.647 400.105C569.896 405.736 579.347 409.347 589.228 410.722C592.107 411.109 595.157 411.281 597.863 410.206C601.386 408.788 603.792 405.435 605.468 401.996C613.716 385.017 605.983 367.737 596.832 351.231C582.698 325.741 563.065 302.701 541.756 283.314C522.08 265.39 499.568 247.336 489.773 221.975C482.684 203.663 477.658 184.578 474.865 165.148V165.106Z" fill="#F77C7C"/>
<path d="M551.852 504.387C545.966 493.297 535.44 485.13 523.884 480.186C512.327 475.243 499.696 473.309 487.195 472.277C436.543 468.193 385.419 478.854 334.897 473.524C320.677 472.019 306.027 469.268 292.279 473.266C280.207 476.747 270.025 485.259 262.765 495.489C250.606 512.554 246.783 537.657 259.929 553.949C267.834 563.749 280.25 568.65 292.365 572.088C344.563 586.961 400.026 582.405 454.072 577.719C471.9 576.172 489.815 574.624 507.172 570.326C520.49 567.016 533.808 561.858 543.474 552.143C550.949 544.621 555.718 533.875 555.16 523.515C556.663 517.11 554.902 510.276 551.809 504.43L551.852 504.387Z" fill="#FB9646"/>
<path d="M490.331 501.335C462.062 494.156 433.106 492.136 404.064 491.534C386.107 491.147 368.106 490.804 350.105 490.632C312.213 494.586 278.918 510.706 252.067 534.648C252.926 541.655 255.418 548.318 259.929 553.949C267.834 563.749 280.25 568.649 292.365 572.088C344.563 586.961 400.026 582.405 454.071 577.719C471.9 576.172 489.815 574.624 507.172 570.326C520.49 567.016 533.808 561.858 543.474 552.143C549.274 546.34 553.398 538.56 554.73 530.565C533.55 519.518 514.089 507.439 490.331 501.378V501.335Z" fill="#DD7731"/>
<path d="M299.668 471.761C297.177 472.105 294.685 472.535 292.279 473.223C285.749 475.114 279.777 478.51 274.493 482.851C282.57 478.596 290.947 474.856 299.711 471.761H299.668Z" fill="#DD7731"/>
<path d="M429.927 535.809C430.013 533.832 430.228 531.596 431.689 530.307C433.106 529.017 435.212 529.017 437.145 529.146C458.067 530.522 477.271 540.58 497.291 546.77C521.951 554.422 548.157 556.227 572.86 563.706C574.879 564.308 577.07 565.082 578.144 566.887C578.917 568.177 579.003 569.767 579.046 571.315C579.304 580.428 579.003 589.54 578.144 598.61C578.058 599.685 577.886 600.845 577.199 601.705C576.34 602.737 574.879 602.995 573.504 603.124C568.435 603.639 563.322 603.21 558.253 602.78C528.695 600.373 499.138 597.922 469.795 594.011C456.22 592.205 442.429 589.97 430.013 584.124C422.108 580.384 426.791 570.111 428.252 563.577C430.271 554.679 429.369 544.922 429.841 535.852L429.927 535.809Z" fill="#ED6B6B"/>
<path d="M481.395 541.182C466.917 535.766 452.482 530.092 437.145 529.103C435.254 528.974 433.106 529.017 431.689 530.264C430.228 531.597 430.013 533.789 429.927 535.766C429.455 544.879 430.357 554.594 428.338 563.491C426.834 570.025 422.194 580.299 430.099 584.038C442.515 589.884 456.262 592.12 469.881 593.925C480.75 595.386 491.663 596.59 502.575 597.708C488.741 581.244 479.891 561.944 481.438 541.139L481.395 541.182Z" fill="#D15656"/>
<path d="M482.641 531.768C482.856 530.565 483.027 529.318 482.641 528.201C481.867 525.793 479.032 524.848 476.54 524.246C430.443 512.898 384.259 501.636 339.451 485.989C323.813 480.53 307.358 474.469 291.162 477.736C272.087 481.562 257.18 498.584 253.141 517.626C250.349 530.78 252.669 545.867 262.378 555.152C266.201 558.806 270.455 563.276 275.223 565.641C288.241 572.131 302.375 575.355 316.466 579.009C327.421 581.846 338.591 583.823 349.761 585.801C361.833 587.907 373.863 590.056 385.935 592.162C395.343 593.839 404.838 595.472 414.375 595.859C423.526 596.246 458.282 603.725 467.046 602.995C475.81 602.264 478.559 602.565 478.388 593.323C478.087 576.129 480.149 548.79 482.598 531.811L482.641 531.768Z" fill="#FB9646"/>
<path d="M565.127 569.38C560.874 574.367 558.897 580.9 558.253 587.391C557.179 597.922 559.842 609.356 567.618 616.449C573.891 622.166 582.526 624.358 590.517 627.109C600.054 630.419 609.205 634.847 617.754 640.263C623.64 644.002 629.44 648.301 636.185 650.063C642.457 651.654 649.073 650.923 655.389 649.633C657.064 649.29 658.911 648.774 659.771 647.312C660.329 646.367 660.372 645.249 660.415 644.174C660.974 621.951 659.126 599.642 654.916 577.805C654.443 575.312 653.885 572.776 652.467 570.67C651.049 568.564 648.515 567.059 646.066 567.532C644.82 567.79 643.445 568.478 642.414 567.747C641.813 567.317 641.598 566.543 641.426 565.813C639.622 558.935 636.572 552.358 632.49 546.512C631.03 544.406 629.268 542.3 626.819 541.569C623.64 540.666 620.375 542.3 617.497 543.89C607.487 549.435 597.563 555.754 587.209 560.654C579.347 564.351 571.657 561.6 565.084 569.294L565.127 569.38Z" fill="#F0E9E9"/>
<path d="M655.002 577.891C654.529 575.398 653.971 572.862 652.553 570.756C651.136 568.65 648.601 567.145 646.152 567.618C644.906 567.876 643.531 568.564 642.5 567.833C641.899 567.403 641.684 566.629 641.512 565.898C639.708 559.021 636.658 552.444 632.576 546.598C631.116 544.492 629.354 542.386 626.905 541.655C623.726 540.752 620.461 542.386 617.583 543.976C613.673 546.125 609.764 548.404 605.854 550.682C605.854 550.768 605.94 550.811 605.94 550.897C607.959 557.731 608.604 565.34 615.692 569.165C620.117 571.573 626.218 571.057 630.858 573.765C637.689 577.762 641.254 583.995 643.574 591.389C649.546 610.388 649.073 630.763 647.87 650.794C650.405 650.579 652.94 650.149 655.432 649.633C657.107 649.29 658.954 648.774 659.814 647.312C660.372 646.367 660.415 645.249 660.458 644.174C661.017 621.951 659.169 599.642 654.959 577.805L655.002 577.891Z" fill="#CEC2C2"/>
<path d="M579.562 612.15C579.562 604.026 579.991 595.902 580.722 587.821" stroke="#CEC2C2" stroke-miterlimit="10"/>
<path d="M590.603 615.546C589.572 606.949 590.044 598.137 591.978 589.669" stroke="#CEC2C2" stroke-miterlimit="10"/>
<path d="M605.038 622.639C604.737 622.983 604.307 622.381 604.264 621.951C603.276 612.838 603.405 603.596 604.694 594.527" stroke="#CEC2C2" stroke-miterlimit="10"/>
<path d="M617.669 629.345C617.411 619.845 617.11 610.388 616.852 600.888" stroke="#CEC2C2" stroke-miterlimit="10"/>
<path d="M580.292 516.423C580.378 519.26 584.975 517.884 586.736 515.692C611.74 484.657 618.528 441.371 609.978 402.426C601.429 363.482 578.917 328.664 551.164 300.122C544.806 293.588 537.975 287.183 529.684 283.486C521.392 279.79 511.21 279.016 503.348 283.658C493.295 289.59 489.644 302.271 488.226 313.834C486.636 326.772 486.765 339.84 487.152 352.907C488.441 398.171 492.694 443.348 499.825 488.052C501.544 498.885 503.52 509.846 508.16 519.818C509.664 523.085 511.597 526.309 514.561 528.286C517.569 530.307 521.349 530.78 524.958 530.994C555.031 532.8 585.619 517.884 602.718 493.082" fill="#FB9646"/>
<path d="M580.292 516.422C580.378 519.259 584.975 517.884 586.736 515.692C587.467 514.789 588.154 513.8 588.841 512.855C591.677 476.876 588.97 440.726 579.605 405.177C573.289 381.191 565.642 355.529 548.716 336.659C533.765 320.024 512.284 311.599 497.849 294.491C496.947 293.416 496.217 292.298 495.658 291.138C491.276 297.585 489.214 305.925 488.226 313.834C486.636 326.772 486.765 339.84 487.152 352.907C488.441 398.171 492.694 443.348 499.825 488.052C501.544 498.885 503.52 509.889 508.16 519.818C509.664 523.085 511.597 526.309 514.561 528.286C517.569 530.307 521.349 530.779 524.958 530.994C545.966 532.284 567.189 525.363 583.901 512.64L580.292 516.379V516.422Z" fill="#DD7731"/>
<path d="M565.556 565.64C560.143 571.529 550.992 572.905 543.345 570.584C535.698 568.262 529.383 562.803 524.227 556.699C505.754 534.734 500.77 504.688 497.591 476.145C497.076 471.675 496.646 467.119 497.806 462.82C499.997 454.653 507.816 448.936 516.065 446.959C527.406 444.294 539.608 447.818 548.93 454.782C558.253 461.745 564.869 471.847 569.251 482.636C575.265 497.337 576.425 512.468 576.211 528.2C576.039 540.107 573.891 556.657 565.556 565.683V565.64Z" fill="#C16221"/>
<path d="M559.284 431.011C558.468 427.572 553.828 405.521 553.828 405.521C551.25 401.094 546.138 398.557 541.025 398.257C535.913 397.956 530.843 399.675 526.461 402.254C509.921 411.926 502.704 432.516 502.446 451.687C502.188 470.858 507.515 489.557 510.007 508.556C514.69 544.019 509.406 579.954 506.055 615.546C504.895 627.84 504.551 641.853 513.186 650.665C517.912 655.479 525.001 657.929 531.703 656.984C540.596 655.737 547.985 649.031 552.109 641.036C556.234 633.084 557.608 623.971 558.382 615.073C560.057 596.676 559.671 578.149 561.088 559.751C562.334 543.374 564.998 527.083 566.115 510.705C567.919 483.969 565.642 456.974 559.284 430.968V431.011Z" fill="#F77C7C"/>
<path d="M510.781 515.219C518.557 514.488 526.934 516.122 533.507 518.615C546.438 523.429 555.46 532.8 562.678 543.761C563.924 532.757 565.342 521.796 566.115 510.791C567.919 484.055 565.642 457.06 559.284 431.054C558.468 427.615 553.828 405.564 553.828 405.564C551.25 401.137 546.138 398.6 541.025 398.299C535.913 397.999 530.843 399.718 526.461 402.297C509.921 411.969 502.704 432.559 502.446 451.73C502.188 470.901 507.515 489.6 510.007 508.599C510.308 510.791 510.566 513.027 510.781 515.262V515.219Z" fill="#D15656"/>
<path d="M563.108 309.664C568.564 319.336 570.368 330.641 571.872 341.645C580.55 406.123 582.741 471.546 575.437 536.196C568.736 510.491 549.747 487.923 526.676 474.813C519.76 470.901 509.449 468.58 505.11 475.286C502.962 478.639 503.391 482.937 503.864 486.892C505.969 503.441 508.074 519.99 510.179 536.583C490.159 492.437 489.472 443.348 485.992 395.033C483.758 363.912 472.373 315.037 493.983 289.032C512.843 266.335 551.508 289.16 563.065 309.707L563.108 309.664Z" fill="#FB9646"/>
<path d="M550.949 610.517C548.63 609.055 545.665 609.055 542.959 609.485C540.252 609.915 537.631 610.775 534.882 610.947C527.492 611.42 519.416 607.121 513.143 611.033C511.64 611.978 510.437 613.311 509.32 614.686C502.059 623.67 497.892 635.104 497.677 646.624C497.634 650.235 497.849 654.147 495.787 657.113C494.756 658.617 493.209 659.735 492.049 661.153C490.202 663.474 489.515 666.44 488.913 669.363C486.851 679.465 485.347 689.652 484.445 699.926C484.273 701.989 484.144 704.181 485.047 706.03C485.562 707.104 486.421 708.007 486.808 709.125C487.367 710.715 486.894 712.478 486.421 714.111C483.371 724.771 479.934 736.162 483.457 746.651C486.25 754.904 493.123 761.352 501.071 764.919C509.019 768.487 517.869 769.519 526.547 769.347C536.643 769.175 546.868 767.369 555.718 762.598C558.425 761.137 561.045 759.374 562.893 756.924C564.611 754.603 565.599 751.809 566.415 749.058C570.583 735.002 571.958 719.785 568.091 705.643C566.931 701.43 565.341 697.347 564.01 693.22C557.737 673.49 557.952 652.384 556.277 631.752C555.933 627.496 554.773 623.67 554 619.587C553.398 616.363 554.343 612.666 550.863 610.517H550.949Z" fill="#F0E9E9"/>
<path d="M546.825 740.719C519.459 751.25 491.061 726.147 488.097 700.785C486.937 691.028 487.453 680.797 488.699 670.868C486.765 680.497 485.391 690.168 484.531 699.969C484.359 702.032 484.231 704.224 485.133 706.073C485.648 707.147 486.508 708.05 486.894 709.168C487.453 710.758 486.98 712.52 486.508 714.154C483.457 724.814 480.02 736.205 483.543 746.694C486.336 754.947 493.209 761.394 501.157 764.962C509.105 768.53 517.955 769.562 526.633 769.39C536.729 769.218 546.954 767.412 555.804 762.641C558.511 761.18 561.131 759.417 562.979 756.967C564.697 754.646 565.685 751.852 566.502 749.101C570.669 735.088 572.044 719.914 568.22 705.815C563.151 720.988 562.549 734.701 546.868 740.719H546.825Z" fill="#CEC2C2"/>
<path d="M514.733 683.549C514.475 684.064 515.377 684.365 515.936 684.236C519.545 683.506 523.153 682.474 526.805 682.087C532.089 681.571 537.546 682.474 542.4 684.666" stroke="#CEC2C2" stroke-miterlimit="10"/>
<path d="M514.046 671.04C524.829 668.418 536.128 667.73 547.169 669.063" stroke="#CEC2C2" stroke-miterlimit="10"/>
<path d="M516.065 653.373C517.955 653.373 519.846 653.029 521.693 652.814C529.856 651.869 538.233 652.556 546.138 654.835" stroke="#CEC2C2" stroke-miterlimit="10"/>
<path d="M522.337 631.623C523.798 632.869 525.946 632.654 527.836 632.396C534.023 631.537 540.467 631.107 546.482 632.869" stroke="#CEC2C2" stroke-miterlimit="10"/>
</svg>
