<svg width="180" height="120" viewBox="0 0 180 120" fill="none" xmlns="http://www.w3.org/2000/svg">
<g clip-path="url(#clip0_104_308)">
<path d="M20 -0.131348C8.96875 -0.131348 0 8.83222 0 19.8571V99.8108C0 110.836 8.96875 119.799 20 119.799H160C171.031 119.799 180 110.836 180 99.8108V19.8571C180 8.83222 171.031 -0.131348 160 -0.131348H20ZM85 39.8455H155C157.75 39.8455 160 42.0942 160 44.8426C160 47.591 157.75 49.8397 155 49.8397H85C82.25 49.8397 80 47.591 80 44.8426C80 42.0942 82.25 39.8455 85 39.8455ZM80 74.8253C80 72.0769 82.25 69.8282 85 69.8282H155C157.75 69.8282 160 72.0769 160 74.8253C160 77.5737 157.75 79.8224 155 79.8224H85C82.25 79.8224 80 77.5737 80 74.8253ZM51.25 27.3527V31.694C53.5938 32.0688 55.8125 32.5997 57.8438 33.1619C61.1875 34.0364 63.1562 37.4719 62.2812 40.8137C61.4062 44.1555 57.9688 46.1231 54.625 45.2486C51.1875 44.3429 47.875 43.687 44.875 43.6246C42.4062 43.5933 39.875 44.1868 38.1562 45.1862C36.6562 46.0607 36.2188 46.9352 36.2188 48.0907C36.2188 48.6529 36.25 49.1839 37.875 50.1833C39.8438 51.3701 42.7188 52.2758 46.7188 53.4626L46.9375 53.5251C50.4375 54.587 54.9375 55.93 58.5312 58.2099C62.5625 60.7397 66.125 64.8623 66.2188 71.2024C66.3125 77.7298 62.9375 82.4771 58.4688 85.2567C56.2188 86.6622 53.7188 87.5367 51.2188 88.0676V92.3151C51.2188 95.7507 48.4062 98.5615 44.9688 98.5615C41.5312 98.5615 38.7188 95.7507 38.7188 92.3151V87.7553C35.5 87.0682 32.4688 86.0375 29.9062 85.1318C29.25 84.9132 28.625 84.6946 28 84.4759C24.7188 83.3828 22.9688 79.8536 24.0625 76.5743C25.1562 73.2949 28.6875 71.5459 31.9688 72.639C32.75 72.8889 33.5 73.17 34.2188 73.3886C38.4688 74.8253 41.7188 75.9184 45.1875 76.0433C47.875 76.137 50.3438 75.5436 51.875 74.5754C53.1562 73.7946 53.75 72.8577 53.7188 71.2961C53.7188 70.3903 53.4688 69.7345 51.875 68.735C49.9062 67.4858 47.0625 66.58 43.125 65.3932L42.5938 65.2371C39.1875 64.2064 34.9062 62.9259 31.4688 60.8646C27.5 58.4597 23.7812 54.4621 23.75 48.1532C23.7188 41.5633 27.4375 37.0034 31.8125 34.4424C33.9688 33.1619 36.3438 32.3186 38.75 31.7877V27.3527C38.75 23.9172 41.5625 21.1064 45 21.1064C48.4375 21.1064 51.25 23.9172 51.25 27.3527Z" fill="#2149A2"/>
</g>
<defs>
<clipPath id="clip0_104_308">
<rect width="180" height="120" fill="white"/>
</clipPath>
</defs>
</svg>
