<svg width="182" height="182" viewBox="0 0 182 182" fill="none" xmlns="http://www.w3.org/2000/svg">
<path d="M37.9167 159.25C33.7458 159.25 30.1741 157.764 27.2014 154.791C24.2288 151.818 22.745 148.249 22.75 144.083V37.9167C22.75 33.7458 24.2363 30.1741 27.209 27.2014C30.1817 24.2288 33.7509 22.745 37.9167 22.75H144.083C148.254 22.75 151.826 24.2363 154.799 27.209C157.771 30.1817 159.255 33.7509 159.25 37.9167V113.75L113.75 159.25H37.9167ZM106.167 144.083L144.083 106.167H106.167V144.083ZM53.0833 106.167H91V91H53.0833V106.167ZM53.0833 75.8333H128.917V60.6667H53.0833V75.8333Z" fill="#E4362E"/>
</svg>
