<svg width="760" height="464" viewBox="0 0 760 464" fill="none" xmlns="http://www.w3.org/2000/svg">
<g filter="url(#filter0_f_104_367)">
<path d="M19 19C19 54.9958 20.9401 90.789 23.604 126.646C24.7076 141.5 25.515 157.919 28.4382 172.455C29.9141 179.795 32.3087 189.101 29.359 174.726C20.4921 131.513 27.2872 86.6609 27.2872 43.04C27.2872 27.6585 58.3324 32.0922 67.8024 33.9582C79.2972 36.2231 81.154 56.1303 81.154 67.0799C81.154 87.0933 70.1879 83.9079 55.4867 83.9079C46.4088 83.9079 42.861 83.0372 35.5744 76.6959" stroke="#B5B5B5" stroke-opacity="0.5" stroke-width="8" stroke-linecap="round"/>
<path d="M118.446 180.068C118.446 150.767 101.872 124.368 101.872 94.7259C101.872 88.0777 101.175 80.8825 101.987 74.292C103.115 65.132 112.208 62.7314 116.374 56.9298C122.001 49.0953 131.313 52.8945 137.553 57.9982C152.551 70.2661 154.897 82.4542 161.954 100.469C168.299 116.666 164.026 143.161 164.026 160.836" stroke="#B5B5B5" stroke-opacity="0.5" stroke-width="8" stroke-linecap="round"/>
<path d="M118.446 122.372C107.314 122.372 140.756 122.536 151.825 121.17C155.741 120.686 164.272 121.801 166.098 117.564" stroke="#B5B5B5" stroke-opacity="0.5" stroke-width="8" stroke-linecap="round"/>
<path d="M193.031 158.432C193.031 129.047 191.776 101.119 189.003 72.155C188.161 63.3598 199.54 78.61 200.628 79.9012C213.802 95.5428 221.236 116.068 235.158 130.919C236.127 131.954 245.611 144.467 246.438 144.275C247.468 144.036 251.541 106.145 251.847 103.541C253.812 86.8253 252.879 76.1518 246.898 62.2719" stroke="#B5B5B5" stroke-opacity="0.5" stroke-width="8" stroke-linecap="round"/>
<path d="M286.262 55.06C299.092 56.8114 292.478 110.226 292.478 119.968C292.478 136.885 292.478 187.636 292.478 170.719C292.478 144.038 286.312 114.605 290.866 88.1817C294.358 67.9221 305.125 74.6842 316.303 83.908C336.382 100.476 362.788 125.546 341.28 155.494C336.798 161.734 321.593 158.432 315.267 158.432C308.529 158.432 303.756 160.574 306.98 151.22" stroke="#B5B5B5" stroke-opacity="0.5" stroke-width="8" stroke-linecap="round"/>
<path d="M371.206 151.22C376.502 149.854 375.703 72.267 377.882 72.9563C395.969 78.6803 382.847 133.476 393.996 146.412" stroke="#B5B5B5" stroke-opacity="0.5" stroke-width="8" stroke-linecap="round"/>
<path d="M375.349 127.18C380.614 122.737 389.827 124.776 396.067 124.776" stroke="#B5B5B5" stroke-opacity="0.5" stroke-width="8" stroke-linecap="round"/>
<path d="M358.775 228.148C358.775 282.199 370.161 443.949 367.062 390.017C366.068 372.704 361.921 355.932 360.156 338.732C357.497 312.816 360.231 286.785 358.545 260.869C358.172 255.142 351.712 237.906 355.552 232.956C360.853 226.121 368.964 223.88 376.5 223.473C398.074 222.309 412.063 228.672 423.461 251.386C431.89 268.184 445.558 291.728 438.309 312.288C432.254 329.462 374.853 331.62 371.206 314.692" stroke="#B5B5B5" stroke-opacity="0.5" stroke-width="8" stroke-linecap="round"/>
<path d="M458.221 213.724C465.796 276.344 466.509 338.104 466.509 401.236C466.509 415.411 495.295 408.536 503.341 408.314C510.197 408.125 527.586 409.696 532.806 403.64" stroke="#B5B5B5" stroke-opacity="0.5" stroke-width="8" stroke-linecap="round"/>
<path d="M532.806 244.976C536.003 270.945 538.622 297.521 542.244 323.506C544.984 343.16 553.336 362.752 567.106 374.925C573.902 380.933 590.512 388.751 599.104 383.339C612.16 375.115 607.652 338.872 607.391 325.376C607.047 307.595 600.87 285.134 594.039 269.283C583.158 244.031 593.43 285.028 595.996 293.056C605.644 323.232 611.995 352.657 627.649 379.6C633.195 389.146 640.363 400.826 644.683 410.852" stroke="#B5B5B5" stroke-opacity="0.5" stroke-width="8" stroke-linecap="round"/>
<path d="M690.263 189.684C689.165 179.492 673.45 191.061 669.545 195.026C660.51 204.199 659.186 230.841 659.186 243.64C659.186 262.276 661.935 273.301 667.473 290.652C673.816 310.524 689.512 317.171 704.305 327.246C714.68 334.312 727.836 340.417 733.771 353.156C741.139 368.973 744.18 391.943 735.842 408.448C727.137 425.678 709.983 443.54 691.644 444.507C683.411 444.942 668.518 445.741 665.401 434.891" stroke="#B5B5B5" stroke-opacity="0.5" stroke-width="8" stroke-linecap="round"/>
</g>
<defs>
<filter id="filter0_f_104_367" x="0" y="0" width="759.85" height="463.72" filterUnits="userSpaceOnUse" color-interpolation-filters="sRGB">
<feFlood flood-opacity="0" result="BackgroundImageFix"/>
<feBlend mode="normal" in="SourceGraphic" in2="BackgroundImageFix" result="shape"/>
<feGaussianBlur stdDeviation="7.5" result="effect1_foregroundBlur_104_367"/>
</filter>
</defs>
</svg>
