<svg width="145" height="120" viewBox="0 0 145 120" fill="none" xmlns="http://www.w3.org/2000/svg">
<g clip-path="url(#clip0_104_314)">
<mask id="mask0_104_314" style="mask-type:luminance" maskUnits="userSpaceOnUse" x="3" y="2" width="138" height="124">
<path d="M55.6524 50.5334C58.7106 50.5334 61.739 49.933 64.5644 48.7666C67.3899 47.6002 69.9572 45.8906 72.1197 43.7354C74.2823 41.5802 75.9977 39.0216 77.168 36.2057C78.3384 33.3898 78.9407 30.3717 78.9407 27.3238C78.9407 24.2759 78.3384 21.2578 77.168 18.4419C75.9977 15.626 74.2823 13.0674 72.1197 10.9122C69.9572 8.75697 67.3899 7.04737 64.5644 5.88098C61.739 4.71459 58.7106 4.11426 55.6524 4.11426C49.4759 4.11426 43.5524 6.55954 39.185 10.9122C34.8176 15.2648 32.364 21.1682 32.364 27.3238C32.364 33.4794 34.8176 39.3828 39.185 43.7354C43.5524 48.0881 49.4759 50.5334 55.6524 50.5334Z" fill="white" stroke="white" stroke-width="4" stroke-linecap="round" stroke-linejoin="round"/>
<path d="M100.925 7.42993C104.369 9.49299 107.219 12.4096 109.196 15.8958C111.174 19.382 112.212 23.3191 112.21 27.3238C112.212 31.3286 111.174 35.2657 109.196 38.7519C107.219 42.2381 104.369 45.1547 100.925 47.2177" stroke="white" stroke-width="4" stroke-linecap="round" stroke-linejoin="round"/>
<path d="M5.74878 119.499V123.478H105.556V119.499C105.556 104.645 105.556 97.2177 102.655 91.5414C100.103 86.5505 96.0319 82.4929 91.0241 79.9498C85.3284 77.0586 77.8762 77.0586 62.9716 77.0586H48.3332C33.4287 77.0586 25.9764 77.0586 20.2807 79.9498C15.273 82.4929 11.2015 86.5505 8.64984 91.5414C5.74878 97.2177 5.74878 104.645 5.74878 119.499Z" fill="white" stroke="white" stroke-width="4" stroke-linecap="round" stroke-linejoin="round"/>
<path d="M138.825 123.478V119.499C138.825 104.645 138.825 97.2177 135.924 91.5413C133.372 86.5505 129.301 82.4929 124.293 79.9498" stroke="white" stroke-width="4" stroke-linecap="round" stroke-linejoin="round"/>
</mask>
<g mask="url(#mask0_104_314)">
<path d="M-7.55884 -15.7797H152.133V143.372H-7.55884V-15.7797Z" fill="#2149A2"/>
</g>
</g>
<defs>
<clipPath id="clip0_104_314">
<rect width="145" height="120" fill="white"/>
</clipPath>
</defs>
</svg>
