<svg width="1030" height="1080" viewBox="0 0 1030 1080" fill="none" xmlns="http://www.w3.org/2000/svg">
<g clip-path="url(#clip0_103_307)">
<path d="M634.636 379.258L634.574 379.15L634.621 379.126L634.636 379.258Z" fill="#00184D"/>
<path d="M514.79 673.275C514.79 677.949 518.586 681.743 523.26 681.743C527.943 681.743 531.73 677.949 531.73 673.275C531.73 668.602 527.943 664.808 523.26 664.808C518.586 664.808 514.79 668.594 514.79 673.275Z" fill="white"/>
<path d="M763.345 247.317C763.345 251.991 767.14 255.785 771.815 255.785C776.497 255.785 780.285 251.991 780.285 247.317C780.285 242.644 776.497 238.85 771.815 238.85C767.133 238.85 763.345 242.644 763.345 247.317Z" fill="white"/>
<path d="M658.148 186.456C658.148 191.13 661.944 194.924 666.618 194.924C671.301 194.924 675.088 191.13 675.088 186.456C675.088 181.783 671.301 177.989 666.618 177.989C661.944 177.997 658.148 181.783 658.148 186.456Z" fill="white"/>
<path d="M203.613 613.224C203.613 617.897 207.408 621.691 212.083 621.691C216.757 621.691 220.553 617.897 220.553 613.224C220.553 608.551 216.765 604.756 212.083 604.756C207.408 604.756 203.613 608.551 203.613 613.224Z" fill="white"/>
<path d="M160.344 509.833C160.344 514.506 164.14 518.3 168.815 518.3C173.489 518.3 177.285 514.506 177.285 509.833C177.285 505.159 173.489 501.365 168.815 501.365C164.132 501.365 160.344 505.152 160.344 509.833Z" fill="white"/>
<path d="M882.862 197.902C889.205 196.497 893.208 190.217 891.802 183.876C890.396 177.534 884.114 173.533 877.771 174.939C871.428 176.344 867.425 182.624 868.831 188.966C870.237 195.307 876.519 199.308 882.862 197.902Z" fill="white" stroke="white" stroke-width="2.7193" stroke-miterlimit="10" stroke-linecap="round" stroke-linejoin="round"/>
<path d="M200.319 412.503C200.319 418.996 205.587 424.263 212.083 424.263C218.578 424.263 223.847 418.996 223.847 412.503C223.847 406.01 218.578 400.742 212.083 400.742C205.587 400.742 200.319 406.01 200.319 412.503Z" fill="white" stroke="white" stroke-width="2.7193" stroke-miterlimit="10" stroke-linecap="round" stroke-linejoin="round"/>
<path d="M488.478 323.802C488.478 330.296 493.746 335.563 500.241 335.563C506.737 335.563 512.005 330.296 512.005 323.802C512.005 317.309 506.737 312.042 500.241 312.042C493.746 312.05 488.478 317.309 488.478 323.802Z" fill="white" stroke="white" stroke-width="2.7193" stroke-miterlimit="10" stroke-linecap="round" stroke-linejoin="round"/>
<path d="M486.541 553.874C486.541 560.368 491.81 565.635 498.305 565.635C504.8 565.635 510.069 560.368 510.069 553.874C510.069 547.381 504.8 542.114 498.305 542.114C491.81 542.114 486.541 547.381 486.541 553.874Z" fill="white" stroke="white" stroke-width="2.7193" stroke-miterlimit="10" stroke-linecap="round" stroke-linejoin="round"/>
<path d="M427.436 665.741H285.521V772.973H427.436V665.741Z" fill="#FFE6CC"/>
<path d="M309.126 765.446H300.108V677.779C300.108 675.288 302.129 673.275 304.621 673.275C307.112 673.275 309.126 675.296 309.126 677.779V765.446Z" stroke="#00184D" stroke-width="1.3597" stroke-miterlimit="10" stroke-linecap="round" stroke-linejoin="round"/>
<path d="M329.869 765.446H320.851V677.779C320.851 675.288 322.872 673.275 325.356 673.275C327.848 673.275 329.861 675.296 329.861 677.779V765.446H329.869Z" stroke="#00184D" stroke-width="1.3597" stroke-miterlimit="10" stroke-linecap="round" stroke-linejoin="round"/>
<path d="M350.612 765.446H341.594V677.779C341.594 675.288 343.615 673.275 346.099 673.275C348.591 673.275 350.604 675.296 350.604 677.779V765.446H350.612Z" stroke="#00184D" stroke-width="1.3597" stroke-miterlimit="10" stroke-linecap="round" stroke-linejoin="round"/>
<path d="M371.355 765.446H362.345V677.779C362.345 675.288 364.366 673.275 366.85 673.275C369.342 673.275 371.355 675.296 371.355 677.779V765.446Z" stroke="#00184D" stroke-width="1.3597" stroke-miterlimit="10" stroke-linecap="round" stroke-linejoin="round"/>
<path d="M392.098 765.446H383.08V677.779C383.08 675.288 385.101 673.275 387.593 673.275C390.085 673.275 392.098 675.296 392.098 677.779V765.446Z" stroke="#00184D" stroke-width="1.3597" stroke-miterlimit="10" stroke-linecap="round" stroke-linejoin="round"/>
<path d="M412.841 765.446H403.823V677.779C403.823 675.288 405.845 673.275 408.336 673.275C410.828 673.275 412.841 675.296 412.841 677.779V765.446Z" stroke="#00184D" stroke-width="1.3597" stroke-miterlimit="10" stroke-linecap="round" stroke-linejoin="round"/>
<path d="M434.502 425.628H278.439V467.673H434.502V425.628Z" fill="#FFE6CC"/>
<path d="M302.052 460.154H293.034V437.666C293.034 435.175 295.055 433.163 297.547 433.163C300.038 433.163 302.052 435.183 302.052 437.666V460.154Z" stroke="#00184D" stroke-width="1.3597" stroke-miterlimit="10" stroke-linecap="round" stroke-linejoin="round"/>
<path d="M321.692 460.154H312.674V437.666C312.674 435.175 314.695 433.163 317.187 433.163C319.678 433.163 321.692 435.183 321.692 437.666V460.154Z" stroke="#00184D" stroke-width="1.3597" stroke-miterlimit="10" stroke-linecap="round" stroke-linejoin="round"/>
<path d="M341.34 460.154H332.322V437.666C332.322 435.175 334.343 433.163 336.827 433.163C339.318 433.163 341.332 435.183 341.332 437.666V460.154H341.34Z" stroke="#00184D" stroke-width="1.3597" stroke-miterlimit="10" stroke-linecap="round" stroke-linejoin="round"/>
<path d="M360.98 460.154H351.962V437.666C351.962 435.175 353.983 433.163 356.467 433.163C358.951 433.163 360.972 435.183 360.972 437.666V460.154H360.98Z" stroke="#00184D" stroke-width="1.3597" stroke-miterlimit="10" stroke-linecap="round" stroke-linejoin="round"/>
<path d="M380.627 460.154H371.609V437.666C371.609 435.175 373.631 433.163 376.115 433.163C378.606 433.163 380.62 435.183 380.62 437.666V460.154H380.627Z" stroke="#00184D" stroke-width="1.3597" stroke-miterlimit="10" stroke-linecap="round" stroke-linejoin="round"/>
<path d="M400.267 460.154H391.257V437.666C391.257 435.175 393.278 433.163 395.77 433.163C398.262 433.163 400.275 435.183 400.275 437.666V460.154H400.267Z" stroke="#00184D" stroke-width="1.3597" stroke-miterlimit="10" stroke-linecap="round" stroke-linejoin="round"/>
<path d="M419.915 460.154H410.897V437.666C410.897 435.175 412.918 433.163 415.41 433.163C417.902 433.163 419.915 435.183 419.915 437.666V460.154Z" stroke="#00184D" stroke-width="1.3597" stroke-miterlimit="10" stroke-linecap="round" stroke-linejoin="round"/>
<path d="M411.846 316.638H301.103V368.114H411.846V316.638Z" fill="#FFE6CC"/>
<path d="M321.692 360.595H312.674V328.676C312.674 326.185 314.695 324.173 317.187 324.173C319.678 324.173 321.692 326.193 321.692 328.676V360.595Z" stroke="#00184D" stroke-width="1.3597" stroke-miterlimit="10" stroke-linecap="round" stroke-linejoin="round"/>
<path d="M341.34 360.595H332.322V328.676C332.322 326.185 334.343 324.173 336.827 324.173C339.318 324.173 341.332 326.193 341.332 328.676V360.595H341.34Z" stroke="#00184D" stroke-width="1.3597" stroke-miterlimit="10" stroke-linecap="round" stroke-linejoin="round"/>
<path d="M360.98 360.595H351.962V328.676C351.962 326.185 353.983 324.173 356.467 324.173C358.951 324.173 360.972 326.193 360.972 328.676V360.595H360.98Z" stroke="#00184D" stroke-width="1.3597" stroke-miterlimit="10" stroke-linecap="round" stroke-linejoin="round"/>
<path d="M380.627 360.595H371.609V328.676C371.609 326.185 373.631 324.173 376.115 324.173C378.606 324.173 380.62 326.193 380.62 328.676V360.595H380.627Z" stroke="#00184D" stroke-width="1.3597" stroke-miterlimit="10" stroke-linecap="round" stroke-linejoin="round"/>
<path d="M400.267 360.595H391.257V328.676C391.257 326.185 393.278 324.173 395.77 324.173C398.262 324.173 400.275 326.193 400.275 328.676V360.595H400.267Z" stroke="#00184D" stroke-width="1.3597" stroke-miterlimit="10" stroke-linecap="round" stroke-linejoin="round"/>
<path d="M434.502 623.697H278.439V665.741H434.502V623.697Z" fill="#FFE6CC"/>
<path d="M302.052 658.214H293.034V635.727C293.034 633.236 295.055 631.223 297.547 631.223C300.038 631.223 302.052 633.244 302.052 635.727V658.214Z" stroke="#00184D" stroke-width="1.3597" stroke-miterlimit="10" stroke-linecap="round" stroke-linejoin="round"/>
<path d="M321.692 658.214H312.674V635.727C312.674 633.236 314.695 631.223 317.187 631.223C319.678 631.223 321.692 633.244 321.692 635.727V658.214Z" stroke="#00184D" stroke-width="1.3597" stroke-miterlimit="10" stroke-linecap="round" stroke-linejoin="round"/>
<path d="M341.34 658.214H332.322V635.727C332.322 633.236 334.343 631.223 336.827 631.223C339.318 631.223 341.332 633.244 341.332 635.727V658.214H341.34Z" stroke="#00184D" stroke-width="1.3597" stroke-miterlimit="10" stroke-linecap="round" stroke-linejoin="round"/>
<path d="M360.98 658.214H351.962V635.727C351.962 633.236 353.983 631.223 356.467 631.223C358.951 631.223 360.972 633.244 360.972 635.727V658.214H360.98Z" stroke="#00184D" stroke-width="1.3597" stroke-miterlimit="10" stroke-linecap="round" stroke-linejoin="round"/>
<path d="M380.627 658.214H371.609V635.727C371.609 633.236 373.631 631.223 376.115 631.223C378.606 631.223 380.62 633.244 380.62 635.727V658.214H380.627Z" stroke="#00184D" stroke-width="1.3597" stroke-miterlimit="10" stroke-linecap="round" stroke-linejoin="round"/>
<path d="M400.267 658.214H391.257V635.727C391.257 633.236 393.278 631.223 395.77 631.223C398.262 631.223 400.275 633.244 400.275 635.727V658.214H400.267Z" stroke="#00184D" stroke-width="1.3597" stroke-miterlimit="10" stroke-linecap="round" stroke-linejoin="round"/>
<path d="M419.915 658.214H410.897V635.727C410.897 633.236 412.918 631.223 415.41 631.223C417.902 631.223 419.915 633.244 419.915 635.727V658.214Z" stroke="#00184D" stroke-width="1.3597" stroke-miterlimit="10" stroke-linecap="round" stroke-linejoin="round"/>
<path d="M434.51 665.741H278.439" stroke="#00184D" stroke-width="1.3597" stroke-miterlimit="10" stroke-linecap="round" stroke-linejoin="round"/>
<path d="M411.545 368.122H300.802L264.893 425.628H447.454L411.545 368.122Z" fill="#00184D"/>
<path d="M306.603 415.21H300.802V403.102C300.802 401.498 302.098 400.203 303.703 400.203C305.307 400.203 306.603 401.498 306.603 403.102V415.21Z" stroke="white" stroke-width="1.3597" stroke-miterlimit="10" stroke-linecap="round" stroke-linejoin="round"/>
<path d="M341.586 415.21H335.785V403.102C335.785 401.498 337.089 400.203 338.686 400.203C340.29 400.203 341.586 401.498 341.586 403.102V415.21Z" stroke="white" stroke-width="1.3597" stroke-miterlimit="10" stroke-linecap="round" stroke-linejoin="round"/>
<path d="M324.091 393.547H318.29V381.432C318.29 379.828 319.594 378.533 321.19 378.533C322.795 378.533 324.091 379.828 324.091 381.432V393.547Z" stroke="white" stroke-width="1.3597" stroke-miterlimit="10" stroke-linecap="round" stroke-linejoin="round"/>
<path d="M359.074 393.547H353.273V381.432C353.273 379.828 354.569 378.533 356.174 378.533C357.778 378.533 359.074 379.828 359.074 381.432V393.547Z" stroke="white" stroke-width="1.3597" stroke-miterlimit="10" stroke-linecap="round" stroke-linejoin="round"/>
<path d="M394.057 393.547H388.256V381.432C388.256 379.828 389.56 378.533 391.157 378.533C392.761 378.533 394.057 379.828 394.057 381.432V393.547Z" stroke="white" stroke-width="1.3597" stroke-miterlimit="10" stroke-linecap="round" stroke-linejoin="round"/>
<path d="M376.57 415.21H370.769V403.102C370.769 401.498 372.072 400.203 373.669 400.203C375.274 400.203 376.57 401.498 376.57 403.102V415.21Z" stroke="white" stroke-width="1.3597" stroke-miterlimit="10" stroke-linecap="round" stroke-linejoin="round"/>
<path d="M411.545 415.21H405.744V403.102C405.744 401.498 407.048 400.203 408.645 400.203C410.249 400.203 411.545 401.498 411.545 403.102V415.21Z" stroke="white" stroke-width="1.3597" stroke-miterlimit="10" stroke-linecap="round" stroke-linejoin="round"/>
<path d="M356.475 177.997L301.103 316.638H411.846L356.475 177.997Z" fill="#00184D"/>
<path d="M359.074 242.606H353.273V230.49C353.273 228.886 354.569 227.591 356.174 227.591C357.778 227.591 359.074 228.886 359.074 230.49V242.606Z" stroke="white" stroke-width="1.3597"/>
<path d="M324.091 302.772H318.29V290.665C318.29 289.061 319.594 287.765 321.19 287.765C322.795 287.765 324.091 289.061 324.091 290.665V302.772Z" stroke="white" stroke-width="1.3597"/>
<path d="M359.074 302.772H353.273V290.665C353.273 289.061 354.569 287.765 356.174 287.765C357.778 287.765 359.074 289.061 359.074 290.665V302.772Z" stroke="white" stroke-width="1.3597"/>
<path d="M394.057 302.772H388.256V290.665C388.256 289.061 389.56 287.765 391.157 287.765C392.761 287.765 394.057 289.061 394.057 290.665V302.772Z" stroke="white" stroke-width="1.3597"/>
<path d="M341.586 272.689H335.785V260.574C335.785 258.97 337.089 257.674 338.686 257.674C340.29 257.674 341.586 258.97 341.586 260.574V272.689Z" stroke="white" stroke-width="1.3597"/>
<path d="M376.57 272.689H370.769V260.574C370.769 258.97 372.072 257.674 373.669 257.674C375.274 257.674 376.57 258.97 376.57 260.574V272.689Z" stroke="white" stroke-width="1.3597"/>
<path d="M445.803 467.68H267.153V623.696H445.803V467.68Z" fill="#FFE6CC"/>
<path d="M434.51 467.68H278.439" stroke="#00184D" stroke-width="1.3597" stroke-miterlimit="10" stroke-linecap="round" stroke-linejoin="round"/>
<path d="M423.826 478.353H289.123V613.016H423.826V478.353Z" stroke="#00184D" stroke-width="1.3597" stroke-miterlimit="10" stroke-linecap="round" stroke-linejoin="round"/>
<path d="M434.51 478.145V613.224" stroke="#00184D" stroke-width="1.3597" stroke-miterlimit="10" stroke-linecap="round" stroke-linejoin="round"/>
<path d="M441.537 478.145V613.224" stroke="#00184D" stroke-width="1.3597" stroke-miterlimit="10" stroke-linecap="round" stroke-linejoin="round"/>
<path d="M278.439 478.145V613.224" stroke="#00184D" stroke-width="1.3597" stroke-miterlimit="10" stroke-linecap="round" stroke-linejoin="round"/>
<path d="M271.412 478.145V613.224" stroke="#00184D" stroke-width="1.3597" stroke-miterlimit="10" stroke-linecap="round" stroke-linejoin="round"/>
<path d="M411.638 545.685C411.638 576.138 386.945 600.831 356.475 600.831C326.012 600.831 301.311 576.146 301.311 545.685C301.311 515.223 326.012 490.538 356.475 490.538C386.937 490.546 411.638 515.231 411.638 545.685Z" fill="white"/>
<path d="M356.475 496.831C383.42 496.831 405.343 518.747 405.343 545.684C405.343 572.621 383.42 594.538 356.475 594.538C329.529 594.538 307.606 572.621 307.606 545.684C307.606 518.747 329.529 496.831 356.475 496.831ZM356.475 490.545C326.012 490.545 301.311 515.231 301.311 545.692C301.311 576.153 326.012 600.839 356.475 600.839C386.945 600.839 411.638 576.153 411.638 545.692C411.638 515.231 386.937 490.545 356.475 490.545Z" fill="#00184D"/>
<path d="M354.808 544.019L388.542 513.627L358.141 547.35C357.269 548.322 355.773 548.391 354.808 547.52C353.844 546.649 353.767 545.16 354.639 544.188C354.693 544.134 354.747 544.073 354.808 544.019Z" fill="#00184D"/>
<path d="M358.835 545.685L356.475 580.048L354.114 545.685C354.029 544.381 355.009 543.255 356.313 543.163C357.616 543.07 358.742 544.057 358.835 545.361C358.843 545.469 358.835 545.584 358.835 545.685Z" fill="#00184D"/>
<path d="M360.956 545.685C360.956 548.16 358.951 550.165 356.475 550.165C354.006 550.165 351.993 548.16 351.993 545.685C351.993 543.209 353.998 541.204 356.475 541.204C358.951 541.212 360.956 543.217 360.956 545.685Z" fill="#00184D"/>
<path d="M434.51 623.696H278.439" stroke="#00184D" stroke-width="1.3597" stroke-miterlimit="10" stroke-linecap="round" stroke-linejoin="round"/>
<path d="M255.976 963.676C243.988 963.676 234.238 953.929 234.238 941.945V911.167C234.238 899.183 243.988 889.435 255.976 889.435H614.757V963.676H255.976Z" fill="white"/>
<path d="M234.238 899.468H614.757" stroke="#00184D" stroke-width="1.3597" stroke-miterlimit="10" stroke-linecap="round" stroke-linejoin="round"/>
<path d="M234.238 910.103H614.757" stroke="#00184D" stroke-width="1.3597" stroke-miterlimit="10" stroke-linecap="round" stroke-linejoin="round"/>
<path d="M234.238 920.737H614.757" stroke="#00184D" stroke-width="1.3597" stroke-miterlimit="10" stroke-linecap="round" stroke-linejoin="round"/>
<path d="M234.238 931.372H614.757" stroke="#00184D" stroke-width="1.3597" stroke-miterlimit="10" stroke-linecap="round" stroke-linejoin="round"/>
<path d="M234.238 942.014H614.757" stroke="#00184D" stroke-width="1.3597" stroke-miterlimit="10" stroke-linecap="round" stroke-linejoin="round"/>
<path d="M234.238 952.648H614.757" stroke="#00184D" stroke-width="1.3597" stroke-miterlimit="10" stroke-linecap="round" stroke-linejoin="round"/>
<path d="M255.968 889.435H624.885C627.4 889.435 629.444 887.392 629.444 884.878V879.31C629.444 876.796 627.4 874.752 624.885 874.752H255.968C235.857 874.752 219.55 891.047 219.55 911.159V941.945C219.55 962.049 235.85 978.352 255.968 978.352H624.885C627.4 978.352 629.444 976.316 629.444 973.794V968.226C629.444 965.712 627.4 963.668 624.885 963.668H255.968C243.965 963.668 234.238 953.944 234.238 941.945V911.182C234.238 899.183 243.996 889.435 255.968 889.435Z" fill="#FD3741"/>
<path d="M255.976 860.084C243.988 860.084 234.238 850.337 234.238 838.353V807.575C234.238 795.591 243.988 785.844 255.976 785.844H585.513V860.084H255.976Z" fill="white"/>
<path d="M234.346 795.869H585.613" stroke="#00184D" stroke-width="1.3597" stroke-miterlimit="10" stroke-linecap="round" stroke-linejoin="round"/>
<path d="M234.446 806.503H585.721" stroke="#00184D" stroke-width="1.3597" stroke-miterlimit="10" stroke-linecap="round" stroke-linejoin="round"/>
<path d="M585.513 816.621C585.806 816.621 586.037 816.852 586.037 817.145C586.037 817.438 585.806 817.67 585.513 817.67H234.238C233.944 817.67 233.713 817.438 233.713 817.145C233.713 816.852 233.944 816.621 234.238 816.621" stroke="#00184D" stroke-width="1.3597" stroke-miterlimit="10" stroke-linecap="round" stroke-linejoin="round"/>
<path d="M234.554 827.78H585.821" stroke="#00184D" stroke-width="1.3597" stroke-miterlimit="10" stroke-linecap="round" stroke-linejoin="round"/>
<path d="M234.654 838.422H585.929" stroke="#00184D" stroke-width="1.3597" stroke-miterlimit="10" stroke-linecap="round" stroke-linejoin="round"/>
<path d="M234.238 849.057H585.513" stroke="#00184D" stroke-width="1.3597" stroke-miterlimit="10" stroke-linecap="round" stroke-linejoin="round"/>
<path d="M255.968 785.844H595.641C598.156 785.844 600.2 783.8 600.2 781.286V775.718C600.2 773.204 598.156 771.16 595.641 771.16H255.968C235.857 771.16 219.55 787.455 219.55 807.56V838.345C219.55 858.45 235.85 874.744 255.968 874.744H595.641C598.156 874.744 600.2 872.709 600.2 870.195V864.627C600.2 862.113 598.156 860.069 595.641 860.069H255.968C243.965 860.069 234.238 850.344 234.238 838.345V807.583C234.238 795.591 243.996 785.844 255.968 785.844Z" fill="#2149A2"/>
<path d="M354.338 879.557L324.885 865.413L295.425 879.557V818.194H354.338V879.557Z" fill="#FD3741"/>
<path d="M354.338 853.838V879.557L324.885 865.413L295.425 879.557V853.838" stroke="#00184D" stroke-width="1.3597" stroke-miterlimit="10" stroke-linecap="round" stroke-linejoin="round"/>
<path d="M659.082 978.344L753.008 978.359C756.603 978.359 759.218 975.444 758.855 971.851L754.296 926.598H696.156L674.533 947.358L652.772 962.512C649.933 964.494 648.83 968.164 650.018 971.696C651.321 975.591 655.078 978.344 659.082 978.344Z" fill="#2149A2"/>
<path d="M650.843 973.501C651.63 973.724 652.448 973.84 653.265 973.833L758.724 973.794" stroke="white" stroke-width="1.3597" stroke-miterlimit="10" stroke-linecap="round" stroke-linejoin="round"/>
<path d="M715.441 937.942C715.441 937.942 702.998 933.269 686.235 936.107" stroke="white" stroke-width="1.3597" stroke-miterlimit="10" stroke-linecap="round" stroke-linejoin="round"/>
<path d="M710.666 945.438C710.666 945.438 695.577 940.688 677.488 944.528" stroke="white" stroke-width="1.3597" stroke-miterlimit="10" stroke-linecap="round" stroke-linejoin="round"/>
<path d="M545.168 978.344L639.095 978.359C642.689 978.359 645.605 975.444 645.605 971.851L645.69 926.598H587.549L563.798 947.358L540.478 962.512C537.431 964.494 535.958 968.164 536.783 971.696C537.693 975.591 541.165 978.344 545.168 978.344Z" fill="#2149A2"/>
<path d="M605.886 937.942C605.886 937.942 593.435 933.269 576.672 936.107" stroke="white" stroke-width="1.3597" stroke-miterlimit="10" stroke-linecap="round" stroke-linejoin="round"/>
<path d="M600.262 945.438C600.262 945.438 585.173 940.688 567.084 944.528" stroke="white" stroke-width="1.3597" stroke-miterlimit="10" stroke-linecap="round" stroke-linejoin="round"/>
<path d="M537.431 973.501C538.195 973.724 538.997 973.84 539.822 973.833L645.281 973.794" stroke="white" stroke-width="1.3597" stroke-miterlimit="10" stroke-linecap="round" stroke-linejoin="round"/>
<path d="M563.435 397.719C559.864 408.948 548.1 451.702 545.855 461.372C541.357 458.912 536.798 456.529 532.749 454.601L531.221 453.93C526.955 452.072 521.957 451.918 517.351 453.915C508.542 457.732 504.5 467.966 508.318 476.765C511.172 483.343 514.459 488.903 518.4 494.54C530.28 512.956 557.31 530.839 578.053 513.203C594.021 494.633 600.44 470.958 609.141 448.81C613.106 436.949 616.647 425.212 619.316 412.896L563.435 397.719Z" fill="#F27455"/>
<path d="M620.211 435.121C595.641 437.335 563.412 430.533 555.335 423.708C556.547 419.066 559.169 407.999 561.63 400.928C564.87 391.566 571.728 382.25 585.953 377.314C592 375.209 620.851 371.515 624.392 394.288C626.49 407.768 622.016 423.7 620.211 435.121Z" fill="#FFD500"/>
<path d="M735.065 537.657L586.693 539.384L576.688 925.179C576.688 925.179 614.572 935.629 652.255 928.865L661.357 576.277H662.059L687.462 928.865C687.462 928.865 725.16 935.659 762.859 927.446L735.065 537.657Z" fill="#00184D"/>
<path d="M642.281 916.727L651.067 576.277" stroke="white" stroke-width="1.3597" stroke-miterlimit="10" stroke-linecap="round" stroke-linejoin="round"/>
<path d="M686.49 915.285C686.49 915.285 724.181 922.079 761.879 913.866" stroke="white" stroke-width="1.3597" stroke-miterlimit="10" stroke-linecap="round" stroke-linejoin="round"/>
<path d="M577.035 911.599C577.035 911.599 614.919 922.048 652.602 915.285" stroke="white" stroke-width="1.3597" stroke-miterlimit="10" stroke-linecap="round" stroke-linejoin="round"/>
<path d="M639.419 576.277H662.052L665.43 623.319" stroke="white" stroke-width="1.3597" stroke-miterlimit="10" stroke-linecap="round" stroke-linejoin="round"/>
<path d="M752.491 915.601L725.546 537.649" stroke="white" stroke-width="1.3597" stroke-miterlimit="10" stroke-linecap="round" stroke-linejoin="round"/>
<path d="M696.595 538.104C696.595 538.104 694.173 576.524 728.292 576.277" stroke="white" stroke-width="1.3597" stroke-miterlimit="10" stroke-linecap="round" stroke-linejoin="round"/>
<path d="M589.532 425.374C589.532 446.99 585.845 537.88 585.559 539.654C600.694 543.71 633.463 547.674 661.612 547.674C689.761 547.674 722.53 543.71 737.665 539.654C737.38 537.888 730.992 446.99 730.992 425.374C730.992 402.639 734.656 382.959 719.244 375.78C702.543 368.006 688.326 363.448 650.326 363.448C626.968 363.448 603.255 369.155 587.387 376.836L589.532 425.374Z" fill="#FFD500"/>
<path d="M680.465 364.813C676.338 373.366 665.639 383.383 649.177 382.797C637.151 382.373 631.195 373.397 629.768 364.867C636.518 363.919 643.43 363.441 650.342 363.441C662.538 363.441 672.288 363.896 680.465 364.813Z" fill="#F27455"/>
<path d="M611.555 508.02C611.555 508.02 640.838 527.03 693.448 524.261" stroke="#00184D" stroke-width="1.3597" stroke-miterlimit="10" stroke-linecap="round" stroke-linejoin="round"/>
<path d="M630.185 378.309L625.232 369.109L551.262 392.799L523.469 371.985L516.595 379.273L520.252 397.966L549.774 419.436L632.831 394.18L630.185 378.309Z" fill="white"/>
<path d="M633.487 377.314L634.621 379.127L555.089 403.002L544.528 401.622L513.602 379.127L515.114 378.062L544.528 399.47L555.089 400.851L633.487 377.314Z" fill="#00184D"/>
<path d="M634.613 379.119L555.096 403.01L544.52 401.637L513.61 379.119L530.828 482.094L561.73 504.612L572.306 505.985L649.169 482.896L634.613 379.119Z" fill="#2149A2"/>
<path d="M544.52 401.637L561.73 504.612" stroke="#00184D" stroke-width="1.3597" stroke-miterlimit="10" stroke-linecap="round" stroke-linejoin="round"/>
<path d="M572.306 505.985L555.096 403.01" stroke="#00184D" stroke-width="1.3597" stroke-miterlimit="10" stroke-linecap="round" stroke-linejoin="round"/>
<path d="M503.412 467.048C499.408 458.295 499.81 449.535 501.314 440.335C502.409 433.648 503.235 427.333 503.235 427.333C503.805 425.597 505.132 424.217 506.852 423.569C506.852 423.569 508.079 413.883 508.719 410.822C509.151 408.732 511.458 407.59 513.548 407.999L521.501 409.557C525.513 410.344 532.448 411.423 532.023 415.557C531.723 418.487 527.603 420.253 524.502 420.23C526.955 422.405 530.689 426.77 533.751 432.908C535.094 435.607 534.153 438.923 532.147 441.175L534.284 445.293C535.317 447.676 534.16 451.077 531.746 452.033C531.746 452.033 535.533 455.858 533.049 459.876C532.016 461.542 529.324 462.575 527.549 461.226L519.002 454.601C523.816 472.477 508.974 478.184 508.974 478.184C508.974 478.184 506.166 473.079 503.412 467.048Z" fill="#F27455"/>
<path d="M531.73 452.041L522.844 444.09L512.769 440.335" stroke="#00184D" stroke-width="1.3597" stroke-miterlimit="10" stroke-linecap="round" stroke-linejoin="round"/>
<path d="M532.132 441.183L527.279 434.821L519.527 429.823L512.669 429.045" stroke="#00184D" stroke-width="1.3597" stroke-miterlimit="10" stroke-linecap="round" stroke-linejoin="round"/>
<path d="M524.495 420.23L517.737 419.012L506.829 423.708" stroke="#00184D" stroke-width="1.3597" stroke-miterlimit="10" stroke-linecap="round" stroke-linejoin="round"/>
<path d="M533.034 459.884C532 461.55 529.308 462.575 527.534 461.233L518.987 454.601C520.321 459.56 520.144 463.578 519.195 466.794" stroke="#00184D" stroke-width="1.3597" stroke-miterlimit="10" stroke-linecap="round" stroke-linejoin="round"/>
<path d="M747.794 443.512C746.96 465.074 749.437 487.23 739.316 507.581C718.071 536.353 679.979 510.195 659.946 494.17C654.407 489.659 649.2 485.016 644.124 479.68C643.391 478.893 642.72 478.083 642.18 477.22L657.786 450.714C664.212 452.442 674.387 455.627 680.627 457.809C683.844 458.835 687.593 460.184 691.512 461.642C690.972 457.701 690.324 453.144 689.545 447.907C688.411 439.293 687.246 430.494 686.382 421.757L745.749 412.495C746.96 422.813 747.524 433.039 747.794 443.512Z" fill="#F27455"/>
<path d="M691.512 461.549C691.512 461.549 716.76 465.128 726.58 481.315" stroke="#00184D" stroke-width="1.3597" stroke-miterlimit="10" stroke-linecap="round" stroke-linejoin="round"/>
<path d="M686.459 392.992C691.427 382.712 704.117 378.178 709.408 377.283C732.219 373.42 741.105 387.563 745.749 400.928C748.202 407.999 750.825 419.066 752.044 423.708C743.967 430.541 711.723 437.327 687.161 435.114C685.163 422.235 681.653 402.894 686.459 392.992Z" fill="#FFD500"/>
<path d="M732.998 431.258C719.583 434.504 701.972 436.448 687.153 435.114C686.39 430.201 685.41 424.34 684.754 418.418" stroke="#00184D" stroke-width="1.3597" stroke-miterlimit="10" stroke-linecap="round" stroke-linejoin="round"/>
<path d="M658.426 454.455C658.457 442.401 651.815 427.325 651.815 427.325C651.244 425.59 649.91 424.209 648.205 423.561C648.205 423.561 646.978 413.876 646.338 410.814C645.906 408.732 643.6 407.583 641.509 407.991L633.556 409.549C629.545 410.336 622.61 411.415 623.034 415.557C623.335 418.487 627.446 420.245 630.563 420.23C628.11 422.405 624.376 426.77 621.314 432.916C619.972 435.615 620.913 438.931 622.918 441.183L620.789 445.309C619.756 447.691 620.905 451.092 623.327 452.041C623.327 452.041 619.54 455.866 622.023 459.891C623.057 461.557 625.749 462.583 627.531 461.241L636.071 454.617C636.132 459.776 634.96 462.02 635.315 465.39C637.027 481.523 649.293 479.271 649.293 479.271C649.293 479.271 656.366 463.315 658.426 454.455Z" fill="#F27455"/>
<path d="M623.319 452.041L632.206 444.09L642.281 440.334" stroke="#00184D" stroke-width="1.3597" stroke-miterlimit="10" stroke-linecap="round" stroke-linejoin="round"/>
<path d="M622.918 441.183L627.77 434.821L635.523 429.823L642.381 429.044" stroke="#00184D" stroke-width="1.3597" stroke-miterlimit="10" stroke-linecap="round" stroke-linejoin="round"/>
<path d="M630.563 420.23L637.313 419.012L648.228 423.708" stroke="#00184D" stroke-width="1.3597" stroke-miterlimit="10" stroke-linecap="round" stroke-linejoin="round"/>
<path d="M633.672 342.897L633.695 369.641L675.096 368.97L673.769 342.866L633.672 342.897Z" fill="#F27455"/>
<mask id="mask0_103_307" style="mask-type:luminance" maskUnits="userSpaceOnUse" x="633" y="342" width="43" height="28">
<path d="M633.672 342.897L633.695 369.641L675.096 368.97L673.769 342.866L633.672 342.897Z" fill="white"/>
</mask>
<g mask="url(#mask0_103_307)">
<path d="M671.116 342.041C669.218 348.843 661.674 364.999 633.193 360.51V342.072L671.116 342.041Z" fill="#00184D"/>
</g>
<path d="M599.012 312.312C604.219 318.998 612.419 319.947 617.318 314.433C622.216 308.919 621.962 299.025 616.755 292.339C611.54 285.653 603.348 284.704 598.442 290.218C593.543 295.739 593.798 305.626 599.012 312.312Z" fill="#F27455"/>
<path d="M601.465 295.477C601.465 295.477 612.35 294.197 613.777 307.785" stroke="#00184D" stroke-width="1.3597" stroke-miterlimit="10" stroke-linecap="round" stroke-linejoin="round"/>
<path d="M651.53 237.153C675.25 237.153 694.659 256.556 694.659 280.27V311.556C694.659 335.27 668.123 351.966 645.698 351.966C628.156 351.966 608.393 335.27 608.393 311.556V280.27C608.4 256.556 627.809 237.153 651.53 237.153Z" fill="#F27455"/>
<path d="M631.975 348.758C619.231 342.82 608.4 329.116 608.4 311.556V291.737" stroke="#00184D" stroke-width="1.3597" stroke-miterlimit="10" stroke-linecap="round" stroke-linejoin="round"/>
<path d="M698.007 273.684C698.007 284.889 694.667 298.624 694.667 298.624H684.106C681.337 292.878 678.467 283.833 678.467 283.833C678.467 283.833 682.833 276.722 682.833 274.278C682.833 269.08 679.709 259.649 671.579 257.705C663.51 255.762 643.846 264.384 643.846 264.384C643.846 264.384 627.77 255.847 622.509 257.705C614.016 260.659 609.48 281.411 608.385 287.056C604.196 255.299 608.393 239.945 608.393 239.945C608.393 239.945 635.122 235.441 649.169 235.133C683.088 234.377 698.007 249.939 698.007 273.684Z" fill="#00184D"/>
<path d="M708.004 312.312C702.797 318.998 694.597 319.947 689.699 314.433C684.8 308.919 685.055 299.025 690.262 292.339C695.477 285.653 703.669 284.704 708.575 290.218C713.466 295.739 713.219 305.626 708.004 312.312Z" fill="#F27455"/>
<path d="M705.551 295.477C705.551 295.477 694.667 294.197 693.24 307.785" stroke="#00184D" stroke-width="1.3597" stroke-miterlimit="10" stroke-linecap="round" stroke-linejoin="round"/>
<path d="M644.055 293.318C644.055 293.318 645.675 302.68 640.013 307.029L645.027 312.042" stroke="#00184D" stroke-width="1.3597" stroke-miterlimit="10" stroke-linecap="round" stroke-linejoin="round"/>
<path d="M633.679 318.798C634.875 324.651 640.036 329.046 646.238 329.046C652.432 329.046 657.601 324.651 658.796 318.798H633.679Z" fill="#00184D"/>
<path d="M656.49 318.798C654.16 321.913 650.434 323.918 646.238 323.918C642.049 323.918 638.323 321.905 635.994 318.798H656.49Z" fill="white"/>
<path d="M630.455 300.143C628.55 300.143 627.007 298.601 627.007 296.696V292.4C627.007 290.495 628.55 288.953 630.455 288.953C632.36 288.953 633.903 290.495 633.903 292.4V296.696C633.903 298.608 632.36 300.143 630.455 300.143Z" fill="#00184D"/>
<path d="M663.193 300.143C661.296 300.143 659.745 298.601 659.745 296.696V292.4C659.745 290.495 661.288 288.953 663.193 288.953C665.099 288.953 666.642 290.495 666.642 292.4V296.696C666.642 298.608 665.091 300.143 663.193 300.143Z" fill="#00184D"/>
<path d="M557.252 196.345C557.252 196.345 562.419 160.742 550.918 159.091C539.417 157.44 543.9 178.792 543.9 178.792C543.9 178.792 527.339 163.318 523.461 171.102C513.557 190.937 557.252 196.345 557.252 196.345Z" fill="#396DC9"/>
<path d="M182.186 748.763C182.186 748.763 195.002 713.522 195.7 714.005C196.397 714.488 208.824 718.527 208.274 721.225C207.724 723.936 190.238 752.413 190.238 752.413L182.186 748.763Z" fill="#D12035"/>
<path d="M179.032 754.171C177.972 754.761 177.341 755.942 177.113 757.137C176.898 758.331 177.032 759.566 177.166 760.774C177.341 762.317 177.636 764.062 178.951 764.894C182.105 766.893 187.272 762.907 187.607 759.606C188.023 755.768 182.293 752.359 179.032 754.171Z" fill="#D12035"/>
</g>
<defs>
<clipPath id="clip0_103_307">
<rect width="1312" height="1093" fill="white" transform="translate(0 -13)"/>
</clipPath>
</defs>
</svg>
