<svg width="89" height="150" viewBox="0 0 89 150" fill="none" xmlns="http://www.w3.org/2000/svg">
<path d="M71.5909 0H17.0455C12.5247 0 8.18914 1.79586 4.9925 4.9925C1.79586 8.18914 0 12.5247 0 17.0455V132.955C0 137.475 1.79586 141.811 4.9925 145.008C8.18914 148.204 12.5247 150 17.0455 150H71.5909C76.1116 150 80.4472 148.204 83.6439 145.008C86.8405 141.811 88.6364 137.475 88.6364 132.955V17.0455C88.6364 12.5247 86.8405 8.18914 83.6439 4.9925C80.4472 1.79586 76.1116 0 71.5909 0ZM44.3182 143.182C38.6591 143.182 34.0909 138.614 34.0909 132.955C34.0909 127.295 38.6591 122.727 44.3182 122.727C49.9773 122.727 54.5455 127.295 54.5455 132.955C54.5455 138.614 49.9773 143.182 44.3182 143.182ZM75 115.909H13.6364V20.4545H75V115.909Z" fill="#E4362E"/>
</svg>
