<svg width="30" height="30" viewBox="0 0 30 30" fill="none" xmlns="http://www.w3.org/2000/svg">
<g clip-path="url(#clip0_101_297)">
<path d="M18.285 11.6119C19.4081 12.7369 21.5287 12.4313 23.025 10.9331C24.5212 9.435 24.825 7.31063 23.7037 6.1875C22.5806 5.0625 20.46 5.36625 18.9637 6.86438C17.4675 8.36438 17.1637 10.4888 18.285 11.6119Z" fill="black"/>
<path d="M29.6454 6.21005C28.9648 9.0863 27.1442 13.0088 22.8204 17.8688L22.3704 22.3838C22.2505 23.4656 21.7666 24.4745 20.9979 25.245L16.5317 29.7188C16.3898 29.8622 16.2063 29.9571 16.0073 29.9899C15.8083 30.0227 15.6041 29.9917 15.4237 29.9014C15.2434 29.8112 15.0962 29.6662 15.0032 29.4872C14.9103 29.3083 14.8762 29.1045 14.906 28.9051L15.4123 25.3444C15.4873 24.8194 15.3879 24.2325 15.1667 23.5519C15.0264 23.1356 14.8707 22.7247 14.6998 22.32L14.546 21.9413C13.0179 21.5719 11.5873 20.7 10.4379 19.5469C9.28666 18.3938 8.41478 16.9613 8.04728 15.4313L7.66666 15.2757C7.2631 15.1057 6.85345 14.9506 6.43853 14.8107C5.75791 14.5875 5.17291 14.4882 4.64791 14.5632L1.09291 15.0694C0.893606 15.0987 0.690143 15.0643 0.511541 14.9712C0.332939 14.878 0.188321 14.7308 0.0983163 14.5506C0.00831186 14.3704 -0.0224814 14.1663 0.0103292 13.9676C0.0431399 13.7688 0.137878 13.5855 0.28103 13.4438L4.74728 8.97005C5.51603 8.2013 6.52291 7.7138 7.60478 7.5938H7.61603L12.116 7.14755C16.8842 2.9063 20.7879 1.0913 23.6679 0.390049C25.3367 -0.0168264 26.6492 -0.0449514 27.5679 0.0375486C28.0254 0.0806736 28.3835 0.150049 28.6367 0.211924C28.7623 0.243799 28.8617 0.273799 28.9367 0.296299C29.2817 0.408799 29.4598 0.540049 29.5948 0.849424L29.6492 0.986299C29.795 1.4252 29.8937 1.87838 29.9435 2.33817C30.0467 3.24755 30.0392 4.54692 29.6454 6.21005ZM20.5929 20.2257L20.6679 20.1507L20.4673 22.1775C20.3939 22.8251 20.103 23.4286 19.6423 23.8894L17.2085 26.3269L17.3098 25.6144C17.4448 24.6657 17.246 23.7525 16.9873 22.9557C16.8927 22.6716 16.7901 22.3902 16.6798 22.1119C18.0635 21.99 19.421 21.3994 20.5929 20.2257ZM9.75916 9.37505C8.58728 10.5488 7.99666 11.9082 7.87666 13.2938C7.59835 13.1834 7.31699 13.0809 7.03291 12.9863C6.23791 12.7275 5.32666 12.5288 4.37791 12.6638L3.66541 12.765L6.10291 10.3275C6.56228 9.8663 7.16416 9.57567 7.80916 9.50255L9.83416 9.30192L9.75916 9.37505ZM27.3954 1.94817C26.6829 1.88442 25.5823 1.89755 24.1217 2.2538C21.2004 2.9663 16.7773 5.0588 11.1148 10.7307C9.95228 11.8932 9.61666 13.2432 9.82666 14.5763C10.0273 15.8438 10.7323 17.13 11.7917 18.1913C12.8492 19.2507 14.1354 19.9557 15.3992 20.1582C16.7304 20.3682 18.0785 20.0325 19.2392 18.8682C25.0123 13.0875 27.0992 8.66067 27.7817 5.76755C28.1248 4.32192 28.1192 3.24567 28.0404 2.55567C28.0212 2.37749 27.9931 2.20039 27.956 2.02505C27.7699 1.99021 27.5822 1.96456 27.3935 1.94817H27.3954Z" fill="black"/>
<path d="M13.1418 22.7606C11.895 22.0877 10.7551 21.2334 9.75928 20.2256C8.69172 19.1689 7.79873 17.9493 7.11365 16.6125C5.0474 18.4725 3.42928 26.0888 3.66553 26.325C3.8999 26.5613 11.0455 24.645 13.1418 22.7588V22.7606Z" fill="black"/>
</g>
<defs>
<clipPath id="clip0_101_297">
<rect width="30" height="30" fill="white"/>
</clipPath>
</defs>
</svg>
