<svg width="143" height="120" viewBox="0 0 143 120" fill="none" xmlns="http://www.w3.org/2000/svg">
<g clip-path="url(#clip0_104_306)">
<path d="M46.4745 82.5C45.9405 82.5 45.4065 82.582 44.897 82.7555C42.0013 83.7422 38.9558 84.375 35.7495 84.375C32.5432 84.375 29.4977 83.7422 26.5997 82.7555C26.0903 82.582 25.5585 82.5 25.0245 82.5C11.158 82.5 -0.0742279 94.3312 -0.000493534 108.895C0.0307877 115.05 4.8548 120 10.7245 120H60.7745C66.6442 120 71.4682 115.05 71.4995 108.895C71.5732 94.3312 60.341 82.5 46.4745 82.5ZM35.7495 75C47.5962 75 57.1995 64.9266 57.1995 52.5C57.1995 40.0734 47.5962 30 35.7495 30C23.9028 30 14.2995 40.0734 14.2995 52.5C14.2995 64.9266 23.9028 75 35.7495 75ZM132.274 0H46.4745C40.5601 0 35.7495 5.21484 35.7495 11.6227V22.5C40.9824 22.5 45.8265 24.0891 50.0495 26.6719V15H128.699V82.5H114.399V67.5H85.7995V82.5H68.7646C73.0323 86.4117 76.1649 91.5773 77.6329 97.5H132.274C138.189 97.5 142.999 92.2852 142.999 85.8773V11.6227C142.999 5.21484 138.189 0 132.274 0Z" fill="#2149A2"/>
</g>
<defs>
<clipPath id="clip0_104_306">
<rect width="143" height="120" fill="white"/>
</clipPath>
</defs>
</svg>
