<svg width="30" height="30" viewBox="0 0 30 30" fill="none" xmlns="http://www.w3.org/2000/svg">
<path d="M15.0001 0.600098C7.0471 0.600098 0.600098 7.0471 0.600098 15.0001C0.600098 22.9531 7.0471 29.4001 15.0001 29.4001C22.9531 29.4001 29.4001 22.9531 29.4001 15.0001C29.4001 7.0471 22.9531 0.600098 15.0001 0.600098ZM20.5381 16.8466C20.5381 16.8466 21.8116 18.1036 22.1251 18.6871C22.1341 18.6991 22.1386 18.7111 22.1416 18.7171C22.2691 18.9316 22.2991 19.0981 22.2361 19.2226C22.1311 19.4296 21.7711 19.5316 21.6481 19.5406H19.3981C19.2421 19.5406 18.9151 19.5001 18.5191 19.2271C18.2146 19.0141 17.9146 18.6646 17.6221 18.3241C17.1856 17.8171 16.8076 17.3791 16.4266 17.3791C16.3782 17.379 16.3301 17.3866 16.2841 17.4016C15.9961 17.4946 15.6271 17.9056 15.6271 19.0006C15.6271 19.3426 15.3571 19.5391 15.1666 19.5391H14.1361C13.7851 19.5391 11.9566 19.4161 10.3366 17.7076C8.3536 15.6151 6.5686 11.4181 6.5536 11.3791C6.4411 11.1076 6.6736 10.9621 6.9271 10.9621H9.1996C9.5026 10.9621 9.6016 11.1466 9.6706 11.3101C9.7516 11.5006 10.0486 12.2581 10.5361 13.1101C11.3266 14.4991 11.8111 15.0631 12.1996 15.0631C12.2724 15.0622 12.344 15.0437 12.4081 15.0091C12.9151 14.7271 12.8206 12.9196 12.7981 12.5446C12.7981 12.4741 12.7966 11.7361 12.5371 11.3821C12.3511 11.1256 12.0346 11.0281 11.8426 10.9921C11.9203 10.8849 12.0227 10.7979 12.1411 10.7386C12.4891 10.5646 13.1161 10.5391 13.7386 10.5391H14.0851C14.7601 10.5481 14.9341 10.5916 15.1786 10.6531C15.6736 10.7716 15.6841 11.0911 15.6406 12.1846C15.6271 12.4951 15.6136 12.8461 15.6136 13.2601C15.6136 13.3501 15.6091 13.4461 15.6091 13.5481C15.5941 14.1046 15.5761 14.7361 15.9691 14.9956C16.0204 15.0277 16.0796 15.0449 16.1401 15.0451C16.2766 15.0451 16.6876 15.0451 17.8006 13.1356C18.1439 12.521 18.4421 11.8823 18.6931 11.2246C18.7156 11.1856 18.7816 11.0656 18.8596 11.0191C18.9172 10.9898 18.981 10.9748 19.0456 10.9756H21.7171C22.0081 10.9756 22.2076 11.0191 22.2451 11.1316C22.3111 11.3101 22.2331 11.8546 21.0136 13.5061L20.4691 14.2246C19.3636 15.6736 19.3636 15.7471 20.5381 16.8466Z" fill="#4680C2"/>
</svg>
